<?xml version="1.0" encoding="UTF-8"?>
<!DOCTYPE svg PUBLIC "-//W3C//DTD SVG 1.1//EN" "http://www.w3.org/Graphics/SVG/1.1/DTD/svg11.dtd">
<!-- Creator: CorelDRAW 2018 (64-Bit) -->
<svg xmlns="http://www.w3.org/2000/svg" xml:space="preserve" width="27.8696mm" height="27.8696mm" version="1.1" style="shape-rendering:geometricPrecision; text-rendering:geometricPrecision; image-rendering:optimizeQuality; fill-rule:evenodd; clip-rule:evenodd"
viewBox="0 0 30286 30286"
 xmlns:xlink="http://www.w3.org/1999/xlink">
 <defs>
  <style type="text/css">
   <![CDATA[
    .fil0 {fill:#FEFEFE}
   ]]>
  </style>
 </defs>
 <g id="Слой_x0020_1">
  <metadata id="CorelCorpID_0Corel-Layer"/>
  <path class="fil0" d="M6974.6 0l16336.8 0c3836.1,0 6974.6,3138.5 6974.6,6974.6l0 16336.8c0,3836.1 -3138.5,6974.6 -6974.6,6974.6l-16336.8 0c-3836.1,0 -6974.6,-3138.5 -6974.6,-6974.6l0 -16336.8c0,-3836.1 3138.5,-6974.6 6974.6,-6974.6zm1778.1 15760.8c0,-2117.6 802,-4005 2547.7,-5224.1 1186,-828.5 2338.3,-1119 3795.4,-1119 1030.6,0 2328,509.6 3189.8,1096 449.4,305.8 1149.1,1002.3 1462.8,1451.5 828.5,1186.2 1119,2338.6 1119,3795.5 0,1030.6 -509.7,2328 -1096,3189.9 -305.8,449.2 -1002.3,1149 -1451.5,1462.7 -550.4,384.5 -1278.1,763 -1951.7,905.4 -1538.6,325.6 -2593,326.3 -4128.9,-358.5 -1498.8,-668.2 -2930.1,-2306.5 -3272.9,-3927.2 -69.7,-328.6 -213.5,-870.4 -213.5,-1272.3zm-3257.2 -285.7c0,1447.3 384,2940.2 1024.7,4175.4 488.5,941.7 478.4,885 1145.7,1768.6 406.8,538.6 1241.7,1275.2 1818.1,1667.7 2852.9,1941.9 6393.2,2290.1 9501.5,678.1 159.7,-82.8 222.3,-80.1 386.2,-185.3 793.4,-509.6 1298,-815.4 2012.8,-1530.2 138.4,-138.4 421,-437.3 545.3,-597.5l727.5 -986.8c1667.3,-2898.8 1967.5,-5591 635.3,-8786.8 -89.8,-215.7 -112.1,-223.5 -192.8,-378.7l-655.2 -1116.3 -1060.2 -1282.5 -1248.4 -1037.6c-432.8,-294.5 -1005.4,-653.2 -1488.2,-854.6 -2005.4,-836.9 -3693.5,-1074.5 -5881.7,-606.3 -636.5,136.3 -1176.2,349.7 -1752.9,590.1 -1438.8,599.8 -2937.4,1867.2 -3815,3156.7 -682.1,1002 -1174.1,1998 -1450.4,3235.3 -128.6,575.7 -252.3,1437.7 -252.3,2090.6zm16629 -9771.6c0,675.8 67.3,1006.2 463.9,1536.1 590,787.8 1493.3,1102.4 2465.1,878.6 2509.9,-578.3 2358.7,-4643.4 -643.2,-4643.4 -721,0 -1425.8,406.1 -1838.7,961.4 -225.4,303.3 -447.1,821.4 -447.1,1267.3z"/>
 </g>
</svg>
