<?xml version="1.0" encoding="UTF-8"?>
<!DOCTYPE svg PUBLIC "-//W3C//DTD SVG 1.1//EN" "http://www.w3.org/Graphics/SVG/1.1/DTD/svg11.dtd">
<!-- Creator: CorelDRAW 2018 (64-Bit) -->
<svg xmlns="http://www.w3.org/2000/svg" xml:space="preserve" width="27.8696mm" height="27.8696mm" version="1.1" style="shape-rendering:geometricPrecision; text-rendering:geometricPrecision; image-rendering:optimizeQuality; fill-rule:evenodd; clip-rule:evenodd"
viewBox="0 0 19117.6 19117.6"
 xmlns:xlink="http://www.w3.org/1999/xlink">
 <defs>
  <style type="text/css">
   <![CDATA[
    .fil0 {fill:#FEFEFE}
   ]]>
  </style>
 </defs>
 <g id="Слой_x0020_1">
  <metadata id="CorelCorpID_0Corel-Layer"/>
  <path class="fil0" d="M4402.6 0l10312.4 0c2421.5,0 4402.6,1981.1 4402.6,4402.6l0 10312.4c0,2421.5 -1981.1,4402.6 -4402.6,4402.6l-10312.4 0c-2421.5,0 -4402.6,-1981.1 -4402.6,-4402.6l0 -10312.4c0,-2421.5 1981.1,-4402.6 4402.6,-4402.6zm2637.7 9833.1c48.6,-42.3 251.7,-161.1 320.6,-203 25,-15.2 39.8,-26.5 64.5,-41.7 24.6,-15.1 43.2,-24.8 66.3,-39.6l321.2 -202.6c45.5,-28.5 83.3,-53.6 130.1,-82.1 12.3,-7.6 18.6,-12.3 30,-20l1906.2 -1200c10.4,-6.5 17.1,-11.2 28.3,-16.9l479.6 -302.6c128.3,-84.9 263.2,-160.2 390.6,-246.3l382.7 -239.9c67,-50 143,-89.4 212.6,-134.1 1.3,-0.8 3,-1.9 4.3,-2.8l359.7 -227.5c22.9,-15.4 43.4,-26.7 65.2,-41.1 42,-27.7 85.4,-54.3 130.3,-81.8l304.8 -190.5c1.8,-1.1 7.1,-4.3 8.8,-5.4l519.8 -329.3c22.8,-14.7 41.8,-26.5 65.3,-40.9l219.6 -134.9c51.6,-39.6 107.7,-69.6 171.6,-96.7 81.8,-34.6 267.5,-75.5 333.2,3.6 84.9,102.1 -129.9,245.6 -191.5,308.1l-888 803.2c-22.1,22.5 -35.2,29.5 -56.7,49.4 -37.6,34.8 -70.9,67.8 -111,101.3l-223.1 201.3 0 -7.1 -8.3 5.9 8.3 1.2c-8.1,10.9 -37.9,34.2 -52.2,46.9l-1646 1488.6c-22,16.7 -35.1,35.1 -56.6,49.5l0 -7.1 -8.3 6 8.3 1.1 -750 679.3 0 -7.1 -8.3 5.9 8.3 1.2 -662 597.5c-1.1,1 -2.7,2.3 -3.8,3.3 -79.6,70 -212.1,200.9 -286.5,258.4l-147.5 135.5c-30.1,23.2 -48.3,48.9 -74.9,66.7l0 -7.1 -8.2 5.8 8.2 1.2c-115.2,100.2 -247.4,230.6 -357,322.3 -20.6,17.2 -33.2,28.9 -51.6,47.5 -19.8,20 -30.5,24.5 -49.7,42.3l-513.3 463.2c-30.9,36.6 -33.9,349.4 -41.3,418.6 -3.9,36.8 -9.7,26.1 -7.4,74.2l-112.5 1603.5c-1.5,33.9 -5.6,36.6 -6.5,77.7l-16.1 260.3c-15.6,117.4 -18.8,314 -32.3,427.8l-22.4 352.4c-1.4,30.4 -5.8,47.2 -7.4,85.4 -1.9,45.1 -16.1,53.3 31.8,46.6 74.2,-10.2 77.5,-0.1 176.7,-23 127.2,-29.2 173.8,-68.5 265.9,-130.2l0 7.1 8.2 -6 -8.2 -1.1 440.5 -415.8c36.2,-36.3 68.9,-71.9 106.1,-106.2l548.4 -527.2c21.5,-21.6 35.9,-28.4 56.9,-49.3 19.3,-19.2 33.5,-33.8 52.9,-53.2l438.7 -424.5c35.7,-36 84.9,-68.1 111.5,-107.9 19.6,13.2 32.9,23.9 53.8,38.2l358.8 264c7.8,6 21.3,17.8 26,21.3 0.7,0.5 2.4,1.6 3.1,2.2l101.1 72.5c19.6,14.8 32.9,25.5 53,39l819.4 602.9c19.1,13.8 29.4,24 52.3,39.7l720.8 531.6c6.4,5.1 17.4,14.1 23.9,18.5 79.5,54.1 167.5,130.2 241.1,177.1 20.9,13.2 38.4,26 56.9,41.4 37,30.9 77.2,53.2 114.2,83.9l24.2 18.3c142.7,96.7 274.4,207.8 415.1,306.6 188.4,132 246.6,200.2 494.3,277 99.3,30.6 191.7,46 318.4,33.4 43.4,-4.3 114.8,-26 149.6,-41.4 23.3,-10.4 35.8,-20.4 59.1,-32.9 185.3,-99.7 277,-331.5 339.8,-523.5 39.3,-120.3 59.1,-260.5 87.9,-386.3 6.7,-29.6 11.2,-50.3 17.4,-81.6l215.8 -1015.6c4.4,-19.7 6.6,-24.1 9.6,-37.5 0.3,-1.2 0.8,-3.2 1.1,-4.3 0.1,-1.1 0.5,-3.1 0.7,-4.3l34.2 -169.4c10.8,-50.4 23.1,-106.5 33.4,-158.1 29.8,-149.6 54.2,-300 96.7,-448.2l100.2 -479.9c18.2,-91.8 149.2,-674.3 162.4,-766.6l33.4 -162.6c42.3,-213.4 92.4,-415.6 134.4,-629.9 5.6,-28.7 11.7,-53.4 16.5,-75.5 4.5,-20.4 5.4,-23.3 9.3,-39.4l172.4 -819.1c11,-56 21.6,-103.1 33,-158l24.2 -106.9c0.8,-6.4 3.1,-24.2 6.4,-39 51,-229.7 95.3,-469.7 149.6,-699.9l802.9 -3778.2c0.2,-1 0.8,-3 1,-4l32.4 -157.6c33.5,-185.6 17.5,-128.8 41.8,-315.8 17,-131.5 -22.1,-334.2 -82.4,-453.6l-41.4 -78.8c-0.8,-1.3 -1.9,-3.1 -2.7,-4.4l-8.5 -12.7c-34.6,-45.8 -74.6,-86.2 -120,-120.5 -33.6,-25.6 -81.2,-51.2 -122.3,-68.8 -164.3,-69.9 -352.5,-49.2 -515.3,-1.5 -27.2,8 -43,19 -70.7,26.5 -1.2,0.3 -12.1,2.7 -12.3,2.7 -7.5,2.4 -0.3,-0.5 -11.3,4.7l-248 98c-46.8,16.9 -88.1,35.4 -137.9,53.2 -49.4,17.5 -91,34.3 -137.8,53.2 -44.2,17.8 -90.6,33.1 -138.5,52.5l-684.2 264c-23.8,8.6 -41,16.7 -65.8,26.3l-102.6 39c-10.8,4.3 -24.8,9 -36.1,13.4 -24,9.5 -47.4,18.9 -71.5,27.5 -47.4,17.1 -88,34.4 -137.7,53.4l-414.3 158.9c-22.8,8.2 -43.6,15 -66.6,25.4l-208.5 81.6c-21.4,8.5 -43,16.1 -66.7,25.2 -25.7,9.8 -46.2,18.8 -68.9,26.4l-1238.2 477.9c-25.7,9.5 -40.7,15.5 -67,25 -257,92.1 -511.3,196.9 -766.2,295.7l-356.8 137.5c-15.3,6.1 -21.8,8.6 -36,14l-623.9 239.6c-17.6,7.1 -15.7,6.8 -34.6,12.6 -1.8,0.5 -10.2,2.9 -11.7,3.5l-15.1 7.2c-105.4,48.3 -232.3,91.9 -341.7,132.3 -14.5,5.4 -21.5,7.3 -36.4,13.1 -15.8,6 -12.9,6.7 -34.7,14.9 -27.9,10.4 -42.7,14.9 -66.5,25.5 -11.7,5.2 -24.4,9.9 -36.3,13.2 -5.1,1.5 -9.7,2.3 -13.8,3.5l-78 32c-124.6,40.9 -355.9,134.8 -485.4,186.9l-341.6 132.5c-23.3,9.3 -49.9,18.4 -71.8,27.3l-761.3 293c-27,10.8 -44,18 -71.8,27.2l-137.3 53.8c-51.7,20.9 -115.9,37 -165.7,61.5l-1484 574.4c-49.5,18.9 -92.1,33.9 -138.6,52.5l-418.5 161.7c-25.3,9.5 -41.6,14.3 -67.7,24.3 -21.5,8.2 -42.4,19.2 -70,29l-276.7 105.4c-24,9.7 -43.4,17.6 -65.6,26.4l-68.8 24.3c-91.3,30.2 -178.1,73.7 -268.3,105.7l-505.7 194.4c-13.8,6 -24.4,9.9 -35.7,14.1 -93.4,34.3 -186.7,70.4 -275.9,106.2l-209.2 80.9c-13.9,5.4 -22.8,8.4 -36.7,13.4 -232.7,82.3 -471.7,173.2 -675.9,314.2l-105.2 86c-39,39.2 -82.1,83 -107.2,133.4 -150.6,301 134.1,487.7 380,581.2l181 59.5c49.5,15.2 93.7,28 146.1,44.9l1583.9 496.4c100.6,32.9 191.3,58.4 290.9,91.2 51.7,17 99.1,29.2 146.1,44.9l879.3 274.2c24.5,8.1 48.2,17.9 68.9,23.7 31.6,8.8 89.2,-37.6 119,-56.8l768.4 -483.9c12.7,-8.5 13.1,-10.2 24.8,-17.7l443.2 -278.6c42.7,-25.3 80.7,-53.4 122.6,-75.6l0 7.1 8.2 -6 -8.2 -1.2z"/>
 </g>
</svg>
