<?xml version="1.0" encoding="UTF-8"?>
<!DOCTYPE svg PUBLIC "-//W3C//DTD SVG 1.1//EN" "http://www.w3.org/Graphics/SVG/1.1/DTD/svg11.dtd">
<!-- Creator: CorelDRAW 2018 (64-Bit) -->
<svg xmlns="http://www.w3.org/2000/svg" xml:space="preserve" width="27.8696mm" height="27.8696mm" version="1.1" style="shape-rendering:geometricPrecision; text-rendering:geometricPrecision; image-rendering:optimizeQuality; fill-rule:evenodd; clip-rule:evenodd"
viewBox="0 0 7286.4 7286.4"
 xmlns:xlink="http://www.w3.org/1999/xlink">
 <defs>
  <style type="text/css">
   <![CDATA[
    .fil0 {fill:#FEFEFE}
   ]]>
  </style>
 </defs>
 <g id="Слой_x0020_1">
  <metadata id="CorelCorpID_0Corel-Layer"/>
  <path class="fil0" d="M1678 0l3930.4 0c922.9,0 1678,755.1 1678,1678l0 3930.4c0,922.9 -755.1,1678 -1678,1678l-3930.4 0c-922.9,0 -1678,-755.1 -1678,-1678l0 -3930.4c0,-922.9 755.1,-1678 1678,-1678zm1590.9 3865.7l0.2 -854.6c-758.4,-103.5 -1460.7,359 -1683.2,1080.6 -226.1,733.2 142,1526.8 821.5,1840.6 162.9,75.2 349.4,131.4 554.3,142.9 584.3,32.9 1095.1,-244.7 1390.5,-696.6 149.7,-229 241.7,-504.7 249.6,-794.2 3.2,-115.4 0.5,-234.5 0.5,-350.4l0 -1308.1c0,-26.7 -2,-62.8 0.7,-88.3l56.1 38.4c18.9,12.6 38,24.7 58.2,37.3 302.2,187.8 685.4,303.3 1050,297.7l0 -837.4c-287.4,-5.2 -537.3,-96 -747.3,-272.5 -222.9,-187.3 -372.7,-453.1 -409.1,-755.6 -5.5,-45.9 -4.3,-92 -9.1,-136.8l-836.4 0c-2.7,25.9 -0.6,446.3 -0.6,484.3 0,162.1 1.5,324.8 0,486.8 -3,324.1 -0.5,649.4 -0.5,973.7l-0.4 1217.1c0,76.6 4,164.6 -3.5,238.9 -14.2,140.8 -70.6,262 -137,349.9 -151.9,200.9 -413.5,319.2 -682,271.1 -505.4,-90.4 -757,-672.2 -447.9,-1107.3 8.5,-11.9 18.1,-24.1 26.9,-34.5 159.7,-188.6 398.4,-285.7 648.5,-245.9 36.3,5.8 67.8,17.4 100.2,23.1z"/>
 </g>
</svg>
