<?xml version="1.0" encoding="UTF-8"?>
<!DOCTYPE svg PUBLIC "-//W3C//DTD SVG 1.1//EN" "http://www.w3.org/Graphics/SVG/1.1/DTD/svg11.dtd">
<!-- Creator: CorelDRAW 2018 (64-Bit) -->
<svg xmlns="http://www.w3.org/2000/svg" xml:space="preserve" width="27.8696mm" height="27.8696mm" version="1.1" style="shape-rendering:geometricPrecision; text-rendering:geometricPrecision; image-rendering:optimizeQuality; fill-rule:evenodd; clip-rule:evenodd"
viewBox="0 0 8282.2 8282.2"
 xmlns:xlink="http://www.w3.org/1999/xlink">
 <defs>
  <style type="text/css">
   <![CDATA[
    .fil0 {fill:#FEFEFE}
   ]]>
  </style>
 </defs>
 <g id="Слой_x0020_1">
  <metadata id="CorelCorpID_0Corel-Layer"/>
  <path class="fil0" d="M1907.3 0l4467.6 0c1049,0 1907.3,858.3 1907.3,1907.3l0 4467.6c0,1049 -858.3,1907.3 -1907.3,1907.3l-4467.6 0c-1049,0 -1907.3,-858.3 -1907.3,-1907.3l0 -4467.6c0,-1049 858.3,-1907.3 1907.3,-1907.3zm2691.7 2571.1c-10.1,-17.1 -24.7,-30.3 -40,-44 -5.7,-5.1 -3.7,-3.5 -9.9,-7.8l-38.3 -19.4c-0.6,-0.3 -1.3,-0.5 -1.9,-0.7l-33.3 -12.7c-0.7,-0.3 -3,-1.3 -3.8,-1.7l-73.5 -13.8c-7.9,-1.3 -20.1,-6.8 -28.5,-8.5 -11,-2.2 -21.9,-4 -34.6,-5 -17,-1.4 -14.1,-5.6 -21.6,-7.1 -12.5,0 -30.9,2 -40.4,-1.6 -8.4,-3.2 -20,-3.1 -32.7,-3 -16.1,0.1 -18.4,-4.4 -35,-5 -177.1,-5.5 -351,-2.2 -527.8,-2.2 -51.5,0 -48.1,7.1 -108.3,7.1 -8.5,3.2 0.5,-0.5 0,4.5 -94.2,0.3 -48.1,3.4 -84.2,7 -20.7,2.1 -41.9,11 -62.3,13.9l-32.2 5.1c-28,3.2 -35.1,15 -57.4,20l-35.8 12.2c-4.7,2.3 -0.9,0.7 -5.3,2.6l-23.2 8.2 -75.1 56.5c-21.5,21.6 -34.8,33.5 -45.6,59.8 -5.7,13.9 -5.9,21.1 -5.1,36.8 27.5,22.4 41.8,8.6 69.5,18 0.8,0.3 4.8,2 5.6,2.3l76 30c5.7,2.9 8.7,3.3 13.5,5 12.7,4.5 18.6,12 30.5,18.7l36.9 25.4c13,11.2 24.2,20.5 32.1,35.1 2,3.8 0.2,1.2 3.2,5l14.8 20.6c9.2,13.6 17.1,24.4 21.3,40.2l8.9 21.6c0.3,0.5 0.7,1.2 0.9,1.8l30.2 108.9c0.7,14.6 -1.1,19.5 3,33.8l1.8 12c1.3,40.8 8.4,57.7 9.4,75.8 1.3,22.4 -3.1,46.3 2.7,66.4 9.7,33.9 3.6,93.9 4.1,131.4 0.2,17.7 4.8,45.2 4.8,62.1l0 156.9c0,23.1 -4.8,57.7 -4.7,86.5 0,16.1 0.3,32.7 0.1,48.7 -0.2,15.7 -4.9,26.5 -6.9,40.5 -2.3,16.9 1.7,31.6 -3,47.8l-6.7 36c0.2,25.9 -4.2,26.3 -4.7,43.4l-19.2 101.4c-1.8,5.5 -3.7,13.5 -5.2,18.8l-10.3 24.2c-7.4,14.3 -8.8,27.6 -16.5,40 -10.2,16.4 -14.7,26.4 -28.9,42.1 -4.8,5.3 -6.2,7.6 -9.9,11.9l-22.5 15c-0.6,0.2 -1.3,0.5 -1.9,0.7 -0.6,0.2 -1.3,0.5 -1.9,0.7 -53.3,21.8 -59,16 -114.1,-6.3l-38.2 -24.1 -116.5 -111c-15.1,-16 -44.8,-51.9 -55.2,-69.3l-53.7 -70.6c-3.7,-4.2 -5.9,-7.8 -8.7,-12.7l-59.3 -89.3c-0.5,-0.7 -1.8,-2.7 -2.2,-3.4 -0.3,-0.5 -0.7,-1.2 -1,-1.7l-18.7 -29.8c-6.7,-13.5 -1.4,-3.3 -8.1,-10.8l-4.8 -6.2c-0.4,-0.5 -0.7,-1.2 -1.1,-1.7l-44.5 -71.9c-1.9,-2.9 -6.4,-8.7 -7.8,-10.9l-14.5 -23.3c-12,-15.6 -20.1,-40.1 -31.8,-57.2 -6.5,-9.6 -10,-9.5 -15.1,-23.5 -5.4,-14.5 -14.4,-19.4 -22.9,-36.3 -2.1,-4.2 -4.2,-8.9 -6.2,-12.3l-81.2 -149.4c-4.5,-11.1 -5.6,-8 -10.8,-16l-12.7 -30.3c-0.3,-0.5 -0.8,-1.2 -1.1,-1.7l-16.3 -32.3c-3.3,-9.2 -7.6,-12.1 -12.2,-20.5 -7.1,-13 -10.5,-29.2 -17.8,-42.1 -0.9,-1.5 -2.9,-4.2 -3.2,-4.6 -7.3,-10.4 -5,-11.6 -12.5,-25.5 -13.6,-25.2 -16.1,-39.3 -23.2,-52.8 -11,-21.2 -23.3,-40.4 -31.4,-63l-5.8 -16.1c-7.5,-14.4 -14.5,-18.7 -21,-38.4l-18.5 -49.1c-0.2,-0.5 -0.7,-1.1 -0.9,-1.6 -0.2,-0.5 -0.7,-1.2 -0.9,-1.7 -0.2,-0.5 -0.6,-1.2 -0.9,-1.8l-17.3 -39.5c-3.7,-12 -5.7,-21 -11.5,-29.7 -7,-10.6 -9.8,-21 -14.2,-34.7l-9.2 -17.3c-6.7,-11.2 -5.5,-18.6 -9.6,-28.8l-13.1 -19.1c-8.1,-11 -3.7,-13.4 -12.9,-24.9 -22.2,-27.8 -41.8,-50 -73.3,-67.8 -0.6,-0.3 -1.3,-0.6 -1.8,-0.9l-34.1 -15.2c-8.9,-2 -7.1,-1.4 -14.7,-3.5l-28.7 -11.1c-1.5,-0.8 -13.9,-5.7 -13.9,-5.7 -19.6,-4.9 -397.4,-1.3 -421.4,-1.3 -38.6,0 -472.9,-4.2 -495.8,2.5 -0.6,0.1 -1.3,0.5 -1.9,0.6 -5.5,1.5 -9.2,1.2 -15.7,2.8 -3.8,1 -9.7,3.4 -15,5.2 -16.9,5.6 -36.6,5.2 -52.9,14.6 -32.6,18.8 -35.8,22.6 -55.9,51.8l-5.7 10.6c-6.1,19.6 -3.6,52.8 -0.6,72.5l27.7 84.9c3,5.9 4.9,10.7 6.8,15.4l10.5 21.8c9.1,21.7 22,42.7 29.6,65.1 0.2,0.7 0.4,1.4 0.6,2.1l9.5 22.9c10.3,15.3 15,34.9 24.5,51.3 3,5.1 0.1,0 2.7,5.3l3.4 6.6c0.1,0.3 0.6,1 0.7,1.3l8.3 20.9c3.8,11.5 12.7,18 16,30.3l1.7 9.3c1.7,7.7 -0.6,1 2.3,8 0.2,0.5 2.1,4.4 2.7,5.4l42.7 86.7c2.2,3.9 5.1,8.3 7.3,12.2l40.5 86c0.4,0.8 2.5,5.6 2.6,5.6l5.6 13c0.7,1.8 1.8,5.3 2.9,7.9l29.4 54.8c8.9,11.5 7,10.3 11.5,21.8 1.5,3.9 2.1,3.1 5.8,12.3 2.6,6.8 2.7,6.9 6.3,13.1 5.4,9.2 5.3,17.7 10.2,27.2 4.9,9.2 12.1,14.2 16.3,24.3l11.1 26.7c7.5,12.5 14.1,29.4 22.9,41.8l11.9 20.1c5.8,14.8 9.9,17.7 16.5,30.1 0.3,0.6 1,2.1 1.3,2.7 0.2,0.4 0.5,1.1 0.7,1.5 0.3,0.7 1.2,2.9 1.5,3.6 0.2,0.6 0.4,1.4 0.7,2.1l2.7 10.7c4.7,13.4 12.7,21 18.8,35.3l15.5 25.1c3,5.9 2.9,7.8 5.3,13.7 0.4,1.1 2.7,6.2 3.3,7.2 2.6,4.6 1.6,2.6 3.2,4.9l31.7 55c2.9,5.3 3.6,7.8 5.3,13l14.3 24.1c4,4.9 4.2,6.5 6.5,11.9l16.9 32.1c1.1,2.2 1.4,2.8 2.7,5.3l13 22.4c2.9,4.2 5.1,8 7.3,12.1l7.5 16.7c0.3,0.8 1.2,2.9 1.6,3.6l14.2 26.4c1.8,2.9 5.5,8.5 7.3,11.4 0.4,0.7 1.8,2.7 2.2,3.4 5.7,9.2 9.3,22.7 15.8,30.3l11.3 15.7c2.6,4.8 3.5,7.7 5.7,13 6.1,15 26,42.6 29.8,48.9l11.1 22.2c3.5,10.3 7.4,13.3 13.2,23.5 3.6,6.4 -2.9,-5.2 1.8,3.6l31 50.5c0.3,0.6 3,4.2 3.4,4.7 2.2,2.9 2.9,3.2 4.8,6.3l46.6 79.9c0.3,0.5 0.6,1.2 0.9,1.8 0.3,0.5 0.6,1.2 0.9,1.8l23.5 39.2c3.2,4.7 4,6.2 6.9,11.9l18.4 30.3c0.1,0.3 0.5,1 0.6,1.2l27.7 40.9c0.3,0.5 0.8,1.2 1.1,1.7 1.8,2.9 1.2,1.8 2.8,5.1l81 124.6c6.2,10 7.7,15.6 15.3,25.1 3.8,4.8 11.6,15.6 15.1,22.7 8.7,17.6 30.7,43 41.6,61.3l12.7 19.9c0.3,0.4 0.7,1.1 1,1.7 0.3,0.5 0.7,1.2 1,1.7l5 8.7c5.4,8.7 9.5,13.2 16.6,21.3l4.8 6.4c2.1,3.1 0.8,1.6 3.1,5 17.2,24.8 40.1,48.6 55.4,74l15.1 22.5c8.6,8.9 9,14.4 16.2,24.5 7.3,10.1 10.7,11.7 17.2,20.7l81 106.4c7.4,14.7 72.4,84.6 86.1,102.6l71 83.2c12.7,10.1 16,21 26.3,30.5l29.2 30.6c17.6,18.6 37.6,35.6 57,59.1l20.1 17.8c8.8,8.2 12.4,10.4 19.3,18.5l164.2 144.2c8.2,6.8 15.6,11.6 24.1,16.6 16.1,9.5 12.4,12.8 25.8,21.4l48 34.7c16,10.7 36.5,20 51.1,32.1l12.4 10.1c0.9,0.6 5.8,3.2 6.9,3.8l79.3 50.3c0.6,0.3 1.2,0.7 1.8,0.9 0.6,0.3 1.4,0.6 2,0.9l54.4 31.9c0.2,0.1 7.3,3.6 7.5,3.7l7.7 3.2c0.5,0.2 1.2,0.6 1.7,0.9l53.3 29.9c0.5,0.3 1.2,0.6 1.8,0.8 0.5,0.3 1.2,0.6 1.9,0.8 0.6,0.2 1.2,0.5 1.9,0.8l65 29.8c7.9,4.2 17.2,8.2 26.7,11.9 0.8,0.3 3,1.1 3.8,1.4 43.2,15.5 34.7,19.5 53.7,24.5 0.7,0.1 1.4,0.4 2.1,0.6l29.3 11.9c14.9,7.8 31.5,8 45,14.4l53 17.8c7.7,2 18.7,8.2 26.2,10.9 12.5,4.5 17.4,8.1 32.2,9.2 12.2,0.9 17.5,3.6 28.9,8.1 24.4,9.6 57.9,12 75.8,22 7.2,4 13.5,3.7 23.4,6l34.4 5.7c4.1,1.6 -3.7,2.5 10.7,3 6.5,0.2 12.3,-0.6 18.9,0.6l48.3 9.4c7.5,1 20.5,6 29,7.8 10.7,2.3 23.2,1.5 34.1,4.9 7.9,2.5 -6.1,-0.1 8,2.6 3.3,0.6 4.4,0.6 7.7,0.8 5.8,0.2 13.2,-0.1 19.2,-0.1 2.6,5.6 -4.5,-1.7 -2.7,4.2 12,0.4 25.7,-1.3 36.8,1.5 21.4,5.3 46.1,3.6 74.1,3.6 38.7,0 71,2.3 110.9,2.3 75.2,0 152.4,-0.9 224.5,-2.4 37.6,-0.8 119.3,11.1 152.4,-11.9 21.2,-14.8 59.2,-21.1 75.4,-32.9 8.4,-6.1 6.2,-9 14.9,-15 6.2,-4.3 10,-5.8 14.9,-12.1 19,-24.8 16.7,-20.7 25.5,-47.9 0.9,-2.6 2.5,-7.6 3.4,-10l9.1 -20.1c0.3,-0.6 0.7,-1.2 1,-1.8l3.7 -7.8c1.3,-4.6 1.2,-7.8 1.2,-12.7 0.1,-34.6 4.5,-25.6 4.6,-45.9l-0.1 -84.1c-0.1,-19.7 1.7,-22.8 4.3,-38.4 0.7,-4.4 0.3,-8.5 0.4,-13l14.1 -100.1c0.9,-18.4 2.4,-31.1 9.7,-47.5 6.2,-13.9 7.3,-30.7 10.8,-45.5 2.7,-11.2 5.1,-23.1 10.8,-32.7l5 -8.8c4.4,-8.3 5.8,-23.2 9.9,-33.4 2.8,-7 -1,-0.4 4.8,-8.6 10.8,-15.1 16.4,-38.2 27.7,-53.3l11 -21.7 73.8 -64c15.2,-14.4 36.3,-14.9 56.8,-22.2 14.8,-5.3 36,0.3 53,5.2l4 1.3c0.7,0.2 1.4,0.4 2.1,0.6 25.4,6.6 39.7,16.1 62,26.8l67.9 46.3c10.1,6.8 15.1,15 25.7,22.9l24.4 24.4c2.1,2.5 4,4.8 7.9,8.3l33.6 31.5c6.1,5.2 10.6,11.8 15.2,17.2 1,1.2 3.2,3.6 3.8,4.3l35.7 37.2c2.1,2 5.5,5.3 7.8,8.3l30.3 34.9c2.6,2.8 6.1,6.1 8.1,8.1l114.4 129.1c6.6,8 0,1.8 5.2,6.7l18.2 21.5c2.6,3.4 0.7,1.1 3.9,4.2 21.5,20.4 41.5,49 63.6,68.9l110.5 108.8c7.6,5 10.8,5.2 19.2,13l21.6 18.9c0.8,0.7 3.1,2.9 4.3,3.9 12.2,10.3 18.8,12 37.2,28 6.4,5.6 2.8,2.8 10.2,6.6l60.3 36.8c12.3,8.2 28.9,12.2 43.3,21.5 14.1,9.1 34,7.8 49,15.2 6.7,3.3 3.8,2.1 10.8,6.1 12.5,7.3 23.1,7.7 38,13.5l4.2 1.5c2.1,0.7 4.2,1 6.5,1.6l24.4 7.3c6,1.4 8.6,0.9 14.8,1.1l917.3 2.3c25.3,0 57.1,0 80.8,-12.7 17.1,-9.2 40.6,-10.1 57,-18.7l20.7 -7.3c18.8,-4.4 22.5,-8.1 38.3,-17.8 9.5,-5.8 18.6,-8.5 26.9,-16.8l8.6 -8.3c0.4,-0.4 1.6,-1.7 2.1,-2.2 11.1,-11.7 23.3,-25.7 30.3,-39.9 0.3,-0.6 0.6,-1.3 0.9,-1.8 0.3,-0.5 0.6,-1.2 0.9,-1.8l8.6 -13.7c11.2,-20.7 5.9,-82.1 5.9,-107 0,-11.9 -7.2,-22.2 -10.4,-33.2l-2.4 -8.6c-4.6,-12.3 5.7,12.1 -2.5,-5l-50 -98.5c-7.4,-13.6 -16.3,-22.1 -23.7,-36.1 0,-0.1 -2.1,-4.6 -2.6,-5.5l-52.5 -77.1c-4.8,-9.3 -10.7,-10.3 -17.9,-23l-90.4 -112.5c-3.5,-3.9 -6.6,-6.6 -9.3,-9.7 -7,-8.1 -13.8,-22.9 -21.1,-30.3 -16.5,-16.8 -36.9,-32.8 -51.2,-51.6l-17.4 -17.5c-17.9,-19.6 -7.7,-14 -33.3,-37.3l-20.2 -23.8c-3.2,-2.7 4,2.7 -3.2,-2.3 -17.5,-12.1 -27,-29.2 -43.5,-42 -10.9,-8.5 -14.6,-18.1 -20.5,-22.9 -29.4,-23.9 -26.1,-31.6 -45.2,-44.5 -15.3,-10.3 -21.2,-28.3 -35.7,-36.7 -0.5,-0.3 -1.2,-0.7 -1.8,-1l-25.5 -23.2c-12.4,-8.9 -19.3,-19.6 -28.9,-30.8 -11.6,-13.5 -52.7,-43.9 -69,-61l-54.2 -51c-5.9,-5.2 -12,-11.4 -16.6,-16.1 -24.6,-25.4 -88.7,-78.4 -106.2,-104.5 -8,-11.8 -22.4,-24.7 -31.9,-35.8 -9,-10.5 -26,-25.4 -33.1,-37.3 -2.3,-3.7 -3.1,-7.5 -5.8,-12.8 -4.1,-8.1 -10.3,-11.6 -14.2,-20.6 -4.6,-10.5 -3.7,-16.1 -15.3,-31.2l-16.3 -55c-2.1,-19.5 -4.8,-1.9 -4.8,-21.5 0,-13.7 4.2,-17.3 4.5,-19.7l5.2 -39.3c1.2,-6.7 0.9,-4.1 2,-8.1l35.9 -85.9c2,-3.3 0.8,-1.4 2.6,-5.4 2.1,-4.7 3.9,-9.8 6.4,-14.8l7.7 -11.6c5.9,-6.8 0.3,1.2 5,-5.8l3.6 -7c6.6,-14.6 14.7,-21.8 22.7,-36.9 5.2,-9.8 11.5,-12.4 18.5,-21.7l74.1 -104.8c27.6,-43.6 67.3,-83 95.3,-124 0.3,-0.4 0.8,-1.1 1.1,-1.6l13.9 -18.4c1,-1.2 1.7,-1.6 3.7,-4.5l22.7 -31.2c0.3,-0.5 0.7,-1.2 1,-1.7 0.4,-0.7 1.6,-2.8 2.1,-3.4l18.4 -20.5c0.1,-0.2 0.6,-0.8 0.8,-1.1 11.3,-16.7 64.7,-92.4 74.7,-101.4l83.7 -108.3c4.8,-5.8 4.5,-8.1 7.8,-13.4 7.8,-12.3 19.3,-21 26.3,-33.5 7.9,-14.3 45.2,-59.3 57.3,-78.1 0.3,-0.6 0.7,-1.2 1.1,-1.7l38 -53.6c0.3,-0.5 0.7,-1.2 1,-1.6 11.4,-17.2 21.7,-36.1 35.9,-50.9 12.7,-13.2 7.1,-12.2 15.1,-25.5l33.1 -45.7c0.3,-0.5 0.8,-2.1 1.1,-2.8l29.2 -45.4c7.5,-12.5 11.6,-5 17.8,-22.1 5.4,-15.1 19.9,-38.6 29.4,-52.1l31.1 -49.8c3.5,-5.4 4.1,-8.3 8.2,-13.7 16.2,-21.2 13.1,-28.4 29,-49.4 0.4,-0.4 0.9,-1.1 1.2,-1.5l5.8 -12.8c6.4,-19.5 18.9,-36.1 26.4,-55.2l11.3 -21.4c1.7,-3.6 1,-2.1 2.4,-5.9 2.9,-7.6 5.9,-19.9 11.8,-28.2 12.6,-17.9 11.4,-26.4 19.1,-45.5 12,-29.8 16.6,-55.5 24,-74 14.3,-36.1 8.1,-82.6 8.1,-121.3 0,-12.6 -7.2,-14.1 -10.8,-21.2 -9.5,-19.2 -6.6,-16.3 -22.9,-31.3l-5.5 -5.5c-2.3,-2.2 -6.4,-6.2 -8.4,-7.7l-7.2 -4.2c-14.3,-6.8 -30.6,-17.4 -45.2,-20.4 -11.1,-2.3 -14.9,-4.2 -27,-4.9 -13,-0.7 -41.5,-12.1 -62.4,-15.9 -21.2,-4 -680.6,-0.6 -700.7,-0.6l-376.3 -0.2c-12.2,0.1 -16.6,1.7 -26.1,6.6 -32.9,16.9 -29.4,8.8 -44.3,18.4 -10.9,7.1 -40.7,37.7 -45.3,46.7l-5.3 11.3c-6.5,11.9 -13.3,14.3 -17.8,28.2l-8.4 23.6c-10.6,20.6 -13.8,37.9 -23.7,57.3 -4.4,8.8 -7.9,12.5 -10.1,22.9 -2.2,10.8 -1.6,12.6 -7.4,22.2 -1,1.8 -4.8,7 -6.2,9.5l-8 19.1c-8.8,28.4 -19.9,49.8 -29.6,76.4l-33.6 72c-0.2,0.6 -0.6,1.2 -0.8,1.9l-23.7 57.2c-0.2,0.6 -0.5,1.3 -0.7,1.9 -0.2,0.6 -0.5,1.3 -0.8,1.9l-34.5 63.1c-6.4,11.3 -6.6,20.3 -12.2,31.1 -4.9,9.6 -6.9,10.3 -10.5,21.6 -7.6,23.4 -17.9,32.5 -25.4,53.7 -5.1,14.4 -14.2,26.6 -20.9,41l-4.2 9.4c-4.8,7.9 -9.5,8.7 -13.2,18.9 -4.8,13.8 -4.1,11.4 -10.3,22.2l-31.7 57.7c-9.3,24.1 -18.8,31 -20.7,36.2 -6.4,17.4 -6.5,15.2 -17.4,28.5l-27.7 45.7c-3.2,7.5 -5.1,12 -10,19.4l-12.3 19.6c-0.7,1.4 -2.3,5.1 -2.6,5.6l-8.1 11.6c-0.4,0.4 -0.8,1.1 -1.2,1.6 -4.8,7 -7.4,13.6 -11.8,20.6l-60.1 91.4c-5.9,10.6 -6.9,10.1 -13.7,18.7l-71.9 109.5c-0.3,0.5 -0.7,1.2 -1,1.7 -0.3,0.5 -0.7,1.2 -1,1.7l-62.1 81.4c-7,12.7 3.7,-5.6 -1.9,3.5 -3.4,5.6 -3.1,4.5 -7.3,8.3l-65.9 75.1c-7.8,7.6 -7.2,9.4 -12.7,17 -8.6,11.8 -22,19.7 -32,30.2 -21.3,22.3 -49.3,44.2 -74.2,63.8l-6.5 4.6c-32.1,19.9 -62.2,34.4 -100.1,28.9 -13.8,-4 3.3,-0.6 -7.4,-3.6 -32.4,-9.1 -25.3,-11.8 -48.3,-32.1 -15.9,-14 -12.5,-12.5 -22.1,-27 -0.3,-0.5 -1.5,-2.1 -2,-2.7 -4.8,-6.3 -11.6,-11.6 -14.2,-18.8l-4.3 -16.9c-3.5,-8.8 -5.8,-7.7 -11.5,-15.6 -8.6,-11.7 -4.7,-22.6 -10.2,-35.8 -10.4,-25 -14.1,-47.1 -15.2,-77.1 -0.9,-23.7 -3.8,-0.6 -4.9,-21.1 -0.9,-17.1 1.8,-36 -2.9,-52.5 -9.2,-32.8 -4.1,-121.6 -4.2,-158.7 -0,-9.8 1.4,-53.3 2.8,-61.2l4.4 -28c-0.1,-10 -0.1,-19.9 -0.1,-29.8 0,-82.9 0,-165.9 0,-248.9 5.8,-2.5 -3.5,0 1.8,0.2 3.7,0.1 -2.8,2.3 2.4,-0.2 3.3,-61 0.4,-125.3 0.3,-186.8 -0,-15.3 4.4,-15.7 5.1,-32.2l1.8 -124.3c4.8,-39.3 2.5,-86.5 2.8,-127.4l-1.9 -20.6c-0.2,-0.9 -0.5,-1.4 -0.7,-2.3 -0.2,-0.9 -0.5,-1.4 -0.7,-2.3 -3.8,-15.4 0.7,-31.3 -3.5,-45.5 -4.7,-15.9 -1.7,-35 -5.8,-50.3l-2.1 -13.8c-2.5,-12.2 -0.4,-2.6 -6,-13.9l-12.3 -35.7c-6.4,-21.4 -15.6,-27.9 -26.8,-46.7z"/>
 </g>
</svg>
