<?xml version="1.0" encoding="UTF-8"?>
<!DOCTYPE svg PUBLIC "-//W3C//DTD SVG 1.1//EN" "http://www.w3.org/Graphics/SVG/1.1/DTD/svg11.dtd">
<!-- Creator: CorelDRAW 2018 (64-Bit) -->
<svg xmlns="http://www.w3.org/2000/svg" xml:space="preserve" width="27.8696mm" height="27.8696mm" version="1.1" style="shape-rendering:geometricPrecision; text-rendering:geometricPrecision; image-rendering:optimizeQuality; fill-rule:evenodd; clip-rule:evenodd"
viewBox="0 0 4271.6 4271.6"
 xmlns:xlink="http://www.w3.org/1999/xlink">
 <defs>
  <style type="text/css">
   <![CDATA[
    .fil0 {fill:#FEFEFE}
   ]]>
  </style>
 </defs>
 <g id="Слой_x0020_1">
  <metadata id="CorelCorpID_0Corel-Layer"/>
  <path class="fil0" d="M983.7 0l2304.2 0c541.1,0 983.7,442.7 983.7,983.7l0 2304.2c0,541.1 -442.7,983.7 -983.7,983.7l-2304.2 0c-541.1,0 -983.7,-442.7 -983.7,-983.7l0 -2304.2c0,-541.1 442.7,-983.7 983.7,-983.7zm921.9 2434.7l3.1 -601.7 570.1 295c-5.7,7.4 -134.9,74.1 -141.3,77.4 -42,21.7 -413,222.6 -431.9,229.3zm-494.1 -1057.8c-140.2,10.5 -239.5,87.6 -291.7,168.1 -80.9,124.7 -64,231.4 -64,396.8 0,153 0,306 0,459 0,72.4 -5.1,149.6 14,216.3 17.2,60.3 48.8,114 81.1,149.5 33.8,37.2 75.1,70.7 132.2,96.2 66.9,29.8 118.5,32 197.9,32l1150.4 0c72.8,0 157.8,3.9 228.9,-0.8 139.7,-9.3 238.7,-88.2 291.4,-167.7 80.8,-122 64.4,-233.6 64.4,-396.7 0,-153 0,-306 0,-459 0,-74.3 5,-147.4 -14,-216.7 -16.8,-61.5 -47.4,-111.7 -81.3,-149.1 -33.1,-36.4 -72.8,-70.9 -131.8,-96.6 -68.5,-29.8 -116.9,-32 -198.3,-32l-1265.6 0c-36.4,0 -77.8,-1.7 -113.4,0.9z"/>
 </g>
</svg>
