<?xml version="1.0" encoding="UTF-8"?>
<!DOCTYPE svg PUBLIC "-//W3C//DTD SVG 1.1//EN" "http://www.w3.org/Graphics/SVG/1.1/DTD/svg11.dtd">
<!-- Creator: CorelDRAW 2018 (64-Bit) -->
<svg xmlns="http://www.w3.org/2000/svg" xml:space="preserve" width="378.772mm" height="441.398mm" version="1.1" style="shape-rendering:geometricPrecision; text-rendering:geometricPrecision; image-rendering:optimizeQuality; fill-rule:evenodd; clip-rule:evenodd"
viewBox="0 0 15235.9 17755.1"
 xmlns:xlink="http://www.w3.org/1999/xlink">
 <defs>
  <style type="text/css">
   <![CDATA[
    .fil0 {fill:#FEFEFE}
    .fil1 {fill:#FEFEFE;fill-rule:nonzero}
   ]]>
  </style>
 </defs>
 <g id="Слой_x0020_1">
  <metadata id="CorelCorpID_0Corel-Layer"/>
  <path class="fil0" d="M8062.6 9479.3c31,-74.4 447.2,-674.7 531.9,-733.2 38.4,297.9 89.9,464.7 -151,597.8 -117,64.6 -228.4,114.3 -380.8,135.5zm1745.3 -2328c-156.9,222.2 -325.7,658.4 -411,956.7 -168.9,591.1 64.4,507.9 256.2,999.3 -235.1,444.4 -907.7,1190.1 -1280.1,1416.7 -215.7,-64.8 -406.5,-159.5 -692.2,-157.3 -326.1,2.4 -438.1,81.9 -692.1,157.3 -359.4,-218.7 -1061.4,-984.1 -1279.6,-1416.7l244.2 -451.7c122,-245.5 84.3,-303 6.3,-567.1 -89.1,-301.8 -243.5,-700 -404.5,-934.8 -69,393.7 -22.7,799.6 -124.2,1226.2 -189,794.5 -792.4,1185.9 -690.1,1922.4 43.7,314.4 269.2,799.3 452.9,888l3.2 -286.2c59.7,147 209.2,657.8 448.8,737.9l2.3 -335.3c98.4,108.6 126.7,410.9 446.5,826.1 64.8,84.1 104.2,159.5 193.1,193.5l15.1 -359.2c172.4,394.9 310.9,691.4 635.2,849.2l1.9 -392c103.1,117.1 206.3,344.1 323.5,478.3 48.9,56 338.9,323.7 433.8,308.7 214,-33.7 598.2,-532.1 721.6,-801.2l8.7 406.7c168.6,-74.7 287.6,-228 384.8,-362.7 139.9,-193.9 147.1,-266.4 254.2,-487.3l3.3 360.3c96.6,-35.8 142.6,-121 209.1,-209.9 310.9,-415.3 334.8,-702.3 435.6,-810.7l2.3 335.7c242.7,-85.9 392.1,-607 448.6,-738.7l4.4 286.6c183.8,-89.9 415.5,-586.2 454.6,-912.9 53.1,-443.6 -119,-673 -291.4,-998.4 -673.8,-1272 -355.4,-1020.7 -525,-2127.6zm-3048.4 1587.4c45.3,13.1 216.4,269 265,333.4 79.9,105.8 229.8,300.1 274.4,407 -169.6,-23.5 -358.6,-107.1 -464.9,-190.2 -135.8,-106.2 -104.6,-337 -74.6,-550.2zm921.4 -6134.4c-115.7,-87.6 -207.9,-272.1 -313.9,-353.4 -462.9,-162.3 -937.2,-321.4 -1396.4,-490.6 -149.2,-55 -359.9,-190.6 -499.9,-91.3 -139,98.6 -265.8,306.8 -446,312.7 -663.5,21.6 -2645.7,-160.4 -3011.3,-732.8l-15.6 -24.5c-331.9,-565.2 416.9,-869.1 791.6,-997.1 141.5,-48.4 383.7,-100.1 485.1,-150.4 -370.9,-145.7 -1411.5,-63.3 -1781.5,75 -409.5,153.1 -899.3,528.5 -899.9,1092.4 -0.9,952.6 822.8,1496.2 1517.2,1832.9 345.9,167.8 799.8,315.2 1193.1,441.1 350.7,112.3 927.2,309.4 1279.5,359.1l215.2 -529.8 2086.6 1344.9 -5.5 1651.1c-95.9,-174 -202.6,-477.6 -266.4,-650.8 -130.3,-353.8 -80.7,-224.3 -436.7,-452.7 -919,-589.8 -544.2,-519.5 -638.5,-1171.8 -155.1,-110.7 -515.5,-353.6 -680.8,-426.3 -161.5,189.9 -558.6,1624.6 -472.7,1810.7 13.2,28.5 1439.8,1155.8 1750.9,2792.5 143.2,-164.1 149.4,-417.9 241.6,-609.2 17.9,386 -134.3,831.5 -304.7,1163.3 -62.1,121 -137.1,190.3 -174,308.1 169.2,316.8 870.4,1082.1 1118.5,1228.6 710,-221.6 642.2,-205.3 1329,-0.4 207.3,-120.3 1045.3,-991 1115.7,-1255.8 -3.6,-30.3 -509.4,-718.9 -475.9,-1443.7 89.7,186.1 100.4,453.7 242.2,608.2 397.1,-1778.7 1695.3,-2674 1750.2,-2791.5 20.2,-282.2 -251.6,-1552.1 -472.6,-1810.9 -165.4,73.9 -523,313.5 -681,426.5 -73.4,518.8 111.5,572.5 -135.2,788.8 -165.5,145.2 -310.9,256.7 -502,384.4 -300.7,200.9 -303.7,70.9 -444.9,469.7 -63.4,179.1 -172.1,474.3 -264.3,632.4l-0.3 -1651.1c156.2,-75.2 357,-223.1 522.1,-330.5l1567.4 -1015.3 206.4 533.1c485.8,-73.4 2046.3,-592.4 2497.4,-811.4 627.4,-304.6 1499.1,-878.3 1498.2,-1768.8 -0.7,-618.8 -457.4,-989.1 -919.8,-1155.3 -355.8,-127.9 -1407.7,-214.4 -1761.8,-66.8 319.3,154.9 885.5,172.3 1244.9,582.2 171.8,195.9 112.1,495.1 -39.1,658.4 -393.5,425 -1518.7,565 -2095.9,612.3 -174.2,14.8 -787.4,89.4 -917.5,38.5 -141.4,-55.3 -380.2,-315.6 -470.3,-329 -68.8,-10.2 -1071.3,345.3 -1222.3,396.3 -173.4,58.6 -346.7,117.1 -520.1,175.6 -170.4,70.1 -215.5,260.1 -385.8,392.6z"/>
  <path class="fil1" d="M97 12446.1c15.2,39.1 34.3,86.9 57.3,143.3 20.2,49.7 43.6,106.1 70.1,169.1 21.1,50.1 47.5,113.5 79.5,190.5 22.1,53.3 50.5,122.1 84.9,205.7 29.2,71.2 59.1,143.5 89.6,217.1 22.8,55 53.8,129.5 93,223.6 31.6,75.7 62.8,150.5 93.8,224.4l92.5 220.4 0 0.4c63.7,154.1 136.4,329.4 218.2,525.8 54.7,131.4 116,278 183.9,440l257.4 -637.3c53.2,-131.6 96.7,-239.1 130.6,-322.2 34.1,-83.6 69.7,-170.4 107,-260.6l12.9 -31.2 653.5 0 0 3950.3 -94.5 -176.9c-22.2,-41.6 -49.5,-92 -82,-151.2 -32.1,-58.5 -63,-114.5 -92.9,-168 -35.9,-64.1 -69.4,-124.7 -100.6,-181.7 -33.4,-60.9 -68.1,-125 -104.3,-192.1l-6.1 -11.3 0 -2210.8c-28.3,68.2 -52.1,125.7 -71.4,172.8l-0.1 -0c-43.9,107.2 -87.6,215.7 -131,325.5 -14.2,35.9 -33.3,83.6 -56.8,142.2 -13.8,34.3 -31.6,78.1 -53.2,131l-102.3 250.2c-28,68.6 -62.7,154 -103.9,256.2 -13.8,34.3 -32.2,80.5 -55.1,138.4 -25,63.2 -45,114.2 -59.7,152.2l-45.5 117.2 -47.6 -116.2c-34.6,-84.6 -61.6,-150.7 -81,-198.5 -18.3,-45.1 -43.1,-107 -74.4,-185.6 -17.9,-44.9 -42.6,-105.9 -74,-183.2 -30.4,-74.7 -56.8,-139.2 -79.2,-193.6 -22.8,-55.1 -51.6,-125.5 -86.8,-211.5 -44.8,-109.6 -76.9,-188.6 -96,-235.7 -33.6,-82.9 -70.4,-173.6 -110.4,-272.1l-32 -78.8 0 1664 -480.4 0 0 -4090.8 97 249.1zm12419.1 1830.6l-635.1 -525.7 678.5 0 0 0 701.9 0 -31.4 70.7 -44.9 111c-9.5,23.7 -25.8,63.9 -49,120.7 -23.6,57.8 -44.4,108.6 -62.5,152.5l-74 179.4 -83.1 202c-29.3,71.4 -59,143.6 -88.9,216.6l-90.1 220c-36.5,89.4 -66.8,163.4 -90.7,221.3 -36.6,88.8 -66.5,161.2 -90.1,218 -33.8,81.3 -62,149.5 -84.5,204.4 -24.9,60.8 -49.7,121.7 -74.2,182.6 -29.1,72.2 -50.2,124.5 -63.5,157.1 -13.7,33.7 -30.8,75.4 -51.8,126.3l-36.1 87.4c-8.2,19.8 -14,33.4 -17.5,41.2l-13.3 29.9 -484.2 0 -12 -33.6c-4.9,-13.7 -13.3,-35.4 -25.2,-65.2 -13.2,-33 -29.5,-72.7 -48.7,-119.1 -40.2,-97.1 -90.1,-218.1 -149.7,-363 -29.9,-72.6 -61.6,-149.8 -95.1,-231.7 -19.1,-46.6 -53.5,-130.7 -105.7,-258.7 -161.9,-396.5 -28.3,-68.6 -114.1,-279.1l-116.2 -284.9c-83.9,-205.8 -164.2,-401.3 -240.9,-586.3 -40.8,-98.4 -80.5,-194.4 -119.1,-288.1 -38.7,-93.7 -76.3,-185 -112.8,-273.8l-3.9 -9.6 0 -1284.4 96.6 234.6c98.8,239.9 177.4,431.3 235.8,574.4l179 438.9c69,169.5 55.1,135.6 74.5,183l67.8 165.4c29,70.8 49.9,121.8 62.7,153.5 15.7,38.8 35.7,88.2 59.8,148.4 16.3,40.6 36.1,89.4 59.4,146.4 21.5,52.8 41.9,102.2 61,148.3l65.7 159.1c23.1,56 47.5,115.2 73,177.4 25.8,62.7 53.2,129.3 82.4,200 28.7,69.6 59.1,143.1 91.1,220.4 28.2,68.1 63.1,153.1 104.6,254.7 27.7,67.8 52.3,128 73.6,180.3 41.4,-102.4 64.1,-158.2 83.5,-206.1l52.6 -129.6c2.8,-6.7 -0.7,1.8 62.3,-152.1 23.8,-58.2 40.8,-99.6 47.5,-115.6 22.5,-53.9 42,-100.4 58.5,-139.2 5.2,-12.6 10.3,-25.2 15.8,-38.7 3.9,-9.7 7.5,-18.8 10.8,-27.9l0 -0.2 9.5 -24.7c4.8,-12.3 7.9,-20.2 9.3,-23.9 1.5,-3.7 6,-14.1 13.4,-31.2 7,-16.2 13.8,-31.7 20.3,-46.2 6.7,-15.1 15.9,-37.1 27.5,-65.4l0.2 0c7.8,-19.1 20.4,-50.8 37,-93.1 15.4,-39.1 33.6,-84.5 54.4,-135.5 10.6,-26 22.4,-54.8 35.5,-86.5l0.8 0 0 -1.9 2.1 -5zm-2006 1336.7l-648.9 -503.5 441.4 0 -7.7 -18.6c-28.3,-68.7 -58.3,-141.7 -89.9,-218.9 -41,-100.1 -75.2,-183.7 -102.5,-250.9 -18.7,-46.1 -42.2,-104.1 -70.4,-173.8 -22.7,55.6 -45.4,111.1 -68.1,166.3 -35,85.1 -64.5,155.7 -88.3,211.8 -24.1,56.8 -45.8,108.4 -65.1,154.9 -17.3,41.8 -32.6,79.4 -45.7,112.5 -11.2,28.4 -21.7,54.3 -31.4,77.7 -8.7,21 -15.8,37.1 -21.1,48.3 -5.3,11.2 -9.5,20.1 -12.4,26.7 -3.6,8.1 -6.4,14.6 -8.3,19.5l0.2 0.1 -22.3 54.1c-4.1,9.8 -11,26.7 -20.8,50.9 -13.5,33.4 -24.7,61.1 -33.8,83.9 -13.5,33.6 -30,74.7 -49.6,123.2 -28.3,70.1 -50.9,125.7 -67.3,166.2 -16.3,40 -46.7,114.3 -91.6,224 -35.3,86.1 -75.4,183.7 -120.4,293l-12.9 31.2 -528.8 0 28.9 -69.5c15.3,-36.8 27.7,-66.8 38.3,-92.6l148.2 -360.2 96.5 -234c34.7,-84.1 70.3,-170.6 106.8,-259.4 36.5,-88.9 74,-180.1 112.3,-273.8 115.1,-281.1 78.6,-191.8 111.9,-273.1l201.3 -492.4c29.8,-72.8 57.5,-140.3 83.1,-202.5l63.9 -155.3 38.3 -93 12.9 -31 490.9 0 10.7 36.1c0.6,2 5.4,14.1 14.4,36.3 10.3,25.4 23.8,58.1 40.4,98 14.4,34.5 34.6,83.6 60.7,147.3 30.6,74.7 56.1,137.2 76.4,187.3 28,69 58.1,143.2 90.4,222.5 32.3,79.3 66.7,163.7 103.2,253.3 55.5,136.1 93.2,228.4 112.2,274.9 38.3,93.6 77.5,189.2 117.7,286.8 40.2,97.7 80.5,196 121,294.8 22.2,54.2 63.1,154.2 121.9,298.1l119 291.3c38.8,95.3 76.5,188.3 113.2,278.8l3.7 9.2 0 1285.1 -96.6 -235.1c-53.8,-131 -94.8,-230.9 -123,-300.1 -33,-80.9 -68.2,-167.8 -105.5,-260.1l-91.5 -226.3c-29,-71.7 -56.3,-139.1 -82,-202.1 -34.2,-84.2 -58.7,-144.2 -72.8,-178.5 -18.3,-44.5 -40.3,-97.9 -65.8,-159.4 -22.2,-53.4 -42.5,-102.8 -60.9,-148 -17,-41.6 -36.3,-89.6 -58,-143.8 -35,-87.4 -73.8,-183.4 -116.5,-288zm-7887.7 628.2l0 -2486.6 480.4 0 0 2536.9 -480.4 0 0 -50.3zm781.6 -4.1l0 -4036.9 97 245.1c15.3,38.6 28.7,72.3 39.7,99.8 16.7,41.6 36.9,91.7 60.5,150.2 25.5,63.2 51.4,126.8 77.6,190.8 27.9,68.2 58,141.2 90.2,219 32.3,77.9 65.9,159.3 100.9,244 35,84.8 71.4,172.9 109.1,264.5 34.3,83.3 72.4,174.8 114.1,274.6 39.4,94.2 78,185.6 115.8,274.4l0.2 0.6c83.7,203.4 177.5,430.1 281.3,679.9 68.9,165.6 140.1,336.5 213.7,512.4l0 -1605 480.4 0 0 3987.1 -96.6 -230.1c-70.7,-168.4 -160.1,-381.5 -267.5,-638 -87,-207.8 -172,-410.8 -254.8,-609.1 -27.2,-65.3 -62.8,-151.2 -106.8,-257.6 -35.9,-86.8 -72.1,-174.7 -108.7,-263.5 -31,-75.5 -67,-162.4 -108,-261.4 -30.5,-73.4 -65.7,-157.7 -105.6,-253 -26.4,-62.9 -59.8,-143.2 -100.4,-241.3 -37.5,-90.7 -68.7,-166.4 -93.4,-226.9 -22.5,-55.2 -42,-102.8 -58.4,-142.8l0 1673.3 -480.4 0 0 -50.3zm1972.3 -1222.3c0,-86.2 7.3,-170.1 21.8,-251.7 14.5,-81.5 36.4,-160.7 65.6,-237.7 29,-76.5 63.2,-148.5 102.6,-216.1 39.6,-67.9 84.4,-131.4 134.3,-190.3 50,-59 104.4,-112.4 163.3,-160.3 58.9,-47.9 121.9,-90 189.1,-126.3 67.2,-36.3 136.9,-65.4 209.2,-87.3 72,-21.8 146.3,-36.3 222.8,-43.5l4.5 -0.4c14.4,0 27.5,-0.6 39.3,-1.7 17.4,-1.6 33.5,-2.4 48.3,-2.4 84.8,0 167.2,9 247,27 79.9,18 156.5,44.9 229.7,80.6 72.8,35.6 141,77.4 204.6,125.6 63.6,48.2 122.3,102.5 176.2,163.1 53.6,60.2 101.5,125.4 143.8,195.8 42.2,70.2 78.3,144.7 108.5,223.7 30.1,79 52.8,160.6 68.1,244.9 15.3,84.3 22.9,169.9 22.9,257 0,91.1 -7.8,179.9 -23.4,266.2 -15.5,86 -38.7,168.8 -69.7,248.1 -31,79.7 -67.5,154.1 -109.2,223.2 -42.1,69.7 -89.7,134.4 -142.9,194.1 -53,59.6 -111.1,113.1 -174.1,160.5 -63,47.4 -130.2,88.2 -201.6,122.2 -143.9,68.6 -297.5,104.4 -460.9,107.3 -82.8,1.4 -163.4,-5.9 -241.8,-22 -79.1,-16.2 -155.4,-41.1 -229,-74.6 -73,-33.2 -142.1,-73.2 -207,-120 -64.6,-46.5 -124.5,-99.2 -179.6,-158.2 -55.2,-59.1 -104.8,-123.9 -148.8,-194.3 -43.7,-70 -82,-145.7 -114.9,-227.3 -32.9,-81.7 -57.5,-166.3 -74,-254 -16.5,-87.9 -24.7,-178.3 -24.7,-271.2zm480.4 0c0,106.5 17.3,208.3 51.8,305.3 17.3,48.6 37.8,94.5 61.5,137.6 23.6,43 50.3,83.2 80.2,120.6 29.7,37.2 62.1,70.8 97,100.8 35.1,30.1 72.8,56.6 113.1,79.6 39.8,22.7 81.2,40.3 124.1,52.9 42.9,12.6 87.2,20.1 133.1,22.6l2.4 0.2c50.8,5.1 100.4,4.3 148.7,-2.4 47.8,-6.6 94.5,-19 140.1,-37.4 46.1,-18.6 89.5,-41.4 130,-68.4 40,-26.7 77.4,-57.6 112.3,-92.7l25 -28.1 -0 -0c33.8,-39.3 64,-81.1 90.5,-125.2 27,-45.1 50.7,-92.9 70.9,-143.5 20.1,-50.2 35.1,-102.4 45.2,-156.7 10,-53.9 15,-110.4 15,-169.4 0,-101.2 -17.2,-199.5 -51.6,-294.8 -17.3,-47.8 -37.9,-93.3 -61.9,-136.6 -24.1,-43.3 -51.3,-83.9 -81.6,-121.8 -30.1,-37.6 -63.2,-72 -99.2,-103 -35.8,-30.9 -74.1,-58.1 -114.9,-81.7 -40.5,-23.4 -83,-41.9 -127.5,-55.5 -43.5,-13.3 -89.3,-21.9 -137.6,-25.8l-46 0c-99.5,0 -191.9,21.4 -277.1,64.2 -43.2,21.7 -83.9,47.3 -122.3,76.9 -38.1,29.3 -73.8,62.8 -107.3,100.4 -33.4,37.5 -63.1,78.1 -89,121.5 -26.1,43.7 -48.7,91 -67.7,141.7 -19.1,50.7 -33.4,102.5 -42.8,155.2 -9.4,52.4 -14.1,106.9 -14.1,163.4zm1868.2 -813.4l52.2 -85.9 0 -0.2 50 -82.2 0.1 0c27.5,-47.7 55.7,-94.5 84.3,-140.1 21.5,-34.2 34.9,-55.5 40.2,-63.8l0.2 0c14.3,-22.5 25.4,-39.8 33.1,-51.7l14.9 -23 1478.6 0 -28 69.1 -25.3 61.7 -38.8 94.3c-13.9,33.7 -30.4,74.2 -49.6,121.6 -21.7,53.6 -40.9,101.5 -58,144.4l-12.7 31.8 -414.6 0 0 1033.7 -3.7 9.2c-40.9,101.3 -75.7,187.3 -104.5,258.1 -26.7,65.5 -60.8,148.7 -102,248.8 -32.4,78.8 -63.6,155.4 -93.4,229.8 -29.5,73.7 -56.1,141 -79.7,201.9l-97 250.6 0 -2232.3 -692.6 0 46.3 -76.2zm5646.4 2031.6l0 -2486.6 1018.2 0c114.3,0 223,24.2 326.2,72.6 102.3,48 192.2,114 269.6,198 38.7,42 73.3,87.5 103.8,136.7 30.2,48.6 56.7,101.2 79.3,157.8 22.6,56.5 39.5,114.6 50.7,174.3 11.3,60.2 17,121.7 17,184.6 0,92.8 -11.3,180.6 -33.9,263.4 -22.7,83.2 -56.7,160.2 -101.8,231.1 -45,70.7 -97.4,132.4 -157.2,185l0.1 0.1c-47.9,42.1 -100.4,78.1 -157.5,108 26.8,67.1 56.7,141.2 89.6,222 36.8,90.4 73,178.1 108.4,263.1 31.4,75.3 66.7,160.8 105.9,256.7 35.2,86.1 68.2,167.6 98.8,244.4l3.7 9.4 0 1287.3 -96.6 -233.7c-47.4,-114.6 -91.5,-221.4 -132.2,-320.4 -32.8,-79.7 -70.5,-171.6 -112.5,-274.5 -55.8,-136.4 -88.2,-215.9 -96.5,-236.4 -23.4,-57.6 -51.6,-127.3 -84.5,-208.9 -26.2,-64.9 -51,-126.6 -74.4,-185.1 -15.3,-38.2 -37.2,-93.1 -66.2,-165.8 -16.7,-41.9 -37.5,-93.6 -62.1,-154.6 -26.5,-65.5 -47.1,-116.5 -61.9,-152.6 -34.4,-84.2 -56,-137 -63.7,-155.9 -15.3,-37.8 -37.6,-93.1 -66.2,-164.3l-72.8 -180.9 -110.3 -273.6 297.1 0c53.7,0 102.3,-8.4 145.8,-25.3 43.2,-16.7 82.1,-42 116.9,-75.9 34.4,-33.2 60.1,-71.6 77.2,-115 17.4,-44.2 26.2,-94.2 26.2,-149.9 0,-30.2 -2.6,-58.9 -7.7,-86.1 -5.2,-27.2 -12.8,-53.3 -23,-78l-0.2 -0.2c-10.3,-25.3 -22.3,-48.4 -36.1,-69.4 -13.7,-20.9 -28.9,-39.5 -45.6,-55.9 -17.4,-17.1 -36.2,-32.7 -56.3,-46.3 -19.6,-13.4 -40.2,-24.9 -61.9,-34.4 -43.3,-19 -88.4,-28.5 -135.2,-28.5l-537.8 0 0 2013.9 -480.4 0 0 -50.3z"/>
 </g>
</svg>
