<?xml version="1.0" encoding="UTF-8"?>
<!DOCTYPE svg PUBLIC "-//W3C//DTD SVG 1.1//EN" "http://www.w3.org/Graphics/SVG/1.1/DTD/svg11.dtd">
<!-- Creator: CorelDRAW 2018 (64-Bit) -->
<svg xmlns="http://www.w3.org/2000/svg" xml:space="preserve" width="752.299mm" height="328.456mm" version="1.1" style="shape-rendering:geometricPrecision; text-rendering:geometricPrecision; image-rendering:optimizeQuality; fill-rule:evenodd; clip-rule:evenodd"
viewBox="0 0 33093.6 14448.8"
 xmlns:xlink="http://www.w3.org/1999/xlink">
 <defs>
  <style type="text/css">
   <![CDATA[
    .fil0 {fill:#FEFEFE;fill-rule:nonzero}
   ]]>
  </style>
 </defs>
 <g id="Слой_x0020_1">
  <metadata id="CorelCorpID_0Corel-Layer"/>
  <path class="fil0" d="M31229.8 7529.2l0 -1298.3 945.7 0c109.8,0 206.9,-33.3 284.5,-109.1 101.2,-98.8 130.5,-237.4 104.2,-376.5 -36.4,-192.2 -197.2,-335.8 -388.7,-335.8l-988.3 0 168.6 -280.9 -0.1 -0c56.5,-95.1 120.6,-192.3 172.8,-286.1l646.9 0c529.5,0 918.1,477.2 918.1,997.7 0,451 -291.8,848.7 -734.8,939.4 -60,12.3 -121.2,18.4 -183.4,18.4l-424.6 0 0 787.1 -521.1 0 0 -55.8zm-18277.5 832.5c16.7,42.8 37.6,95 62.7,156.7 22.1,54.3 47.7,116 76.7,184.9 23,54.8 52,124.2 86.9,208.3 24.2,58.3 55.3,133.5 92.8,225 32,77.8 64.6,157 98,237.4 24.9,60.1 58.8,141.6 101.7,244.5 34.5,82.7 68.7,164.6 102.6,245.4l101.1 241 0 0.4c69.6,168.6 149.2,360.2 238.7,575.1 59.8,143.7 126.9,304.1 201.1,481.2l281.5 -697c58.1,-143.9 105.8,-261.5 142.8,-352.3 37.2,-91.4 76.3,-186.4 117,-285l14.1 -34.2 714.7 0 0 4320.1 -103.3 -193.4c-24.3,-45.5 -54.2,-100.6 -89.7,-165.3 -35.1,-64 -68.9,-125.2 -101.6,-183.7 -39.2,-70.2 -75.9,-136.4 -110.1,-198.7 -36.5,-66.6 -74.5,-136.7 -114,-210.1l-6.7 -12.4 0 -2417.8c-31,74.5 -57,137.5 -78.1,189l-0.1 -0c-48,117.3 -95.8,235.9 -143.3,356 -15.6,39.3 -36.4,91.4 -62.1,155.5 -15.1,37.5 -34.5,85.4 -58.1,143.2l-111.8 273.6c-30.6,75 -68.5,168.4 -113.6,280.1 -15.1,37.5 -35.3,88.1 -60.3,151.4 -27.3,69.1 -49.2,124.9 -65.3,166.5l-49.7 128.2 -52.1 -127.1c-37.9,-92.5 -67.4,-164.8 -88.6,-217.1 -20,-49.3 -47.1,-117 -81.4,-202.9 -19.6,-49.1 -46.6,-115.9 -80.9,-200.3 -33.2,-81.7 -62.1,-152.3 -86.6,-211.7 -24.9,-60.3 -56.5,-137.2 -94.9,-231.3 -49,-119.9 -84.1,-206.2 -105,-257.8 -36.7,-90.7 -77,-189.9 -120.7,-297.5l-35 -86.1 0 1819.8 -525.4 0 0 -4473.8 106.1 272.4zm13581.6 2002l-694.6 -574.9 742 0 0 0 767.6 0 -34.4 77.3 -49.1 121.4c-10.4,25.9 -28.3,69.8 -53.6,132 -25.8,63.3 -48.6,118.8 -68.4,166.7l-80.9 196.2 -90.9 220.9c-32.1,78 -64.5,157 -97.2,236.9l-98.5 240.6c-39.9,97.8 -73.1,178.7 -99.2,242 -40,97.1 -72.8,176.3 -98.6,238.4 -36.9,88.9 -67.8,163.5 -92.4,223.5 -27.3,66.5 -54.3,133.1 -81.2,199.7 -31.8,78.9 -54.9,136.2 -69.4,171.8 -15,36.9 -33.7,82.5 -56.6,138.2l-39.4 95.5c-9,21.6 -15.3,36.6 -19.1,45l-14.6 32.6 -529.5 0 -13.1 -36.7c-5.3,-14.9 -14.5,-38.7 -27.6,-71.3 -14.5,-36.1 -32.2,-79.5 -53.2,-130.2 -43.9,-106.2 -98.5,-238.5 -163.8,-397 -32.7,-79.4 -67.4,-163.8 -104,-253.4 -20.9,-51 -58.5,-142.9 -115.6,-282.9 -177.1,-433.6 -30.9,-75 -124.8,-305.2l-127.1 -311.6c-91.8,-225.1 -179.6,-438.8 -263.4,-641.2 -44.6,-107.6 -88,-212.7 -130.3,-315 -42.3,-102.4 -83.4,-202.3 -123.4,-299.5l-4.3 -10.5 0 -1404.7 105.7 256.6c108,262.3 194,471.7 257.8,628.2l195.7 479.9c75.5,185.3 60.2,148.3 81.4,200.2l74.1 180.9c31.7,77.4 54.6,133.2 68.6,167.9 17.2,42.4 39,96.5 65.4,162.3 17.8,44.4 39.5,97.8 64.9,160.1 23.6,57.7 45.8,111.8 66.7,162.2l71.9 174c25.3,61.3 51.9,126 79.9,194 28.2,68.5 58.2,141.4 90.1,218.7 31.4,76.1 64.6,156.5 99.7,241.1 30.8,74.5 69,167.4 114.4,278.6 30.3,74.2 57.2,140 80.5,197.2 45.3,-112 70.1,-173 91.3,-225.4l57.5 -141.8c3,-7.4 -0.8,2 68.1,-166.3 26.1,-63.7 44.6,-108.9 51.9,-126.4 24.6,-59 45.9,-109.7 63.9,-152.3 5.7,-13.8 11.3,-27.6 17.2,-42.3 4.2,-10.6 8.2,-20.6 11.8,-30.5l0 -0.2 10.4 -27c5.2,-13.5 8.6,-22.1 10.2,-26.1 1.7,-4.1 6.5,-15.4 14.6,-34.2 7.7,-17.7 15.1,-34.6 22.2,-50.5 7.3,-16.5 17.4,-40.5 30.1,-71.5l0.2 0c8.5,-20.8 22.3,-55.6 40.5,-101.8 16.8,-42.7 36.7,-92.4 59.5,-148.2 11.6,-28.4 24.5,-59.9 38.8,-94.5l0.8 0 0 -2 2.3 -5.5zm-2193.8 1461.9l-709.6 -550.6 482.7 0 -8.4 -20.4c-31,-75.1 -63.7,-154.9 -98.4,-239.4 -44.9,-109.5 -82.2,-200.9 -112.1,-274.4 -20.5,-50.5 -46.2,-113.8 -77,-190.1 -24.8,60.8 -49.6,121.4 -74.5,181.9 -38.3,93 -70.5,170.3 -96.6,231.7 -26.4,62.1 -50.1,118.6 -71.2,169.4 -19,45.7 -35.6,86.8 -50,123.1 -12.3,31.1 -23.8,59.4 -34.4,85 -9.5,23 -17.2,40.6 -23,52.8 -5.8,12.2 -10.3,22 -13.5,29.2 -3.9,8.8 -7,16 -9.1,21.4l0.2 0.1 -24.4 59.2c-4.5,10.7 -12.1,29.2 -22.7,55.6 -14.8,36.5 -27,66.8 -36.9,91.7 -14.7,36.8 -32.8,81.7 -54.2,134.7 -31,76.6 -55.6,137.5 -73.6,181.7 -17.8,43.7 -51,125 -100.2,245 -38.6,94.1 -82.5,200.9 -131.7,320.4l-14.1 34.2 -578.3 0 31.6 -76c16.7,-40.3 30.3,-73 41.9,-101.3l162.1 -394 105.5 -255.9c37.9,-91.9 76.9,-186.5 116.8,-283.7 39.9,-97.2 80.9,-197 122.8,-299.4 125.9,-307.4 86,-209.8 122.3,-298.6l220.2 -538.5c32.6,-79.6 62.9,-153.4 90.9,-221.5l69.9 -169.9 41.9 -101.7 14.1 -33.9 536.8 0 11.7 39.5c0.7,2.2 5.9,15.4 15.8,39.7 11.3,27.8 26,63.6 44.2,107.2 15.7,37.7 37.9,91.5 66.4,161.1 33.5,81.7 61.4,150.1 83.6,204.9 30.6,75.5 63.6,156.6 98.9,243.3 35.3,86.7 72.9,179 112.8,277 60.7,148.8 101.9,249.8 122.7,300.6 41.9,102.3 84.8,206.9 128.7,313.7 43.9,106.9 88,214.4 132.3,322.4 24.3,59.3 69,168.6 133.3,326l130.1 318.6c42.4,104.3 83.7,205.9 123.7,304.9l4.1 10.1 0 1405.4 -105.7 -257.1c-58.9,-143.2 -103.7,-252.5 -134.5,-328.2 -36.1,-88.5 -74.6,-183.5 -115.3,-284.5l-100.1 -247.5c-31.7,-78.4 -61.6,-152.1 -89.7,-221.1 -37.4,-92.1 -64.2,-157.7 -79.6,-195.3 -20,-48.7 -44.1,-107 -72,-174.4 -24.2,-58.4 -46.5,-112.5 -66.6,-161.9 -18.6,-45.5 -39.7,-97.9 -63.4,-157.2 -38.2,-95.6 -80.7,-200.6 -127.4,-315zm-8626.1 687.1l0 -2719.4 525.4 0 0 2774.4 -525.4 0 0 -55zm854.8 -4.5l0 -4414.8 106.1 268c16.7,42.2 31.4,79.1 43.5,109.2 18.3,45.5 40.3,100.2 66.2,164.2 27.9,69.2 56.2,138.7 84.9,208.6 30.6,74.6 63.5,154.5 98.7,239.5 35.3,85.2 72.1,174.2 110.3,266.9 38.3,92.7 78.1,189.1 119.3,289.3 37.5,91.1 79.1,191.2 124.8,300.3 43.1,103 85.3,203 126.6,300.1l0.2 0.6c91.5,222.5 194.1,470.3 307.7,743.5 75.3,181.1 153.2,367.9 233.7,560.4l0 -1755.2 525.4 0 0 4360.3 -105.7 -251.6c-77.4,-184.2 -175.1,-417.3 -292.6,-697.7 -95.2,-227.3 -188.1,-449.3 -278.6,-666.1 -29.8,-71.5 -68.7,-165.4 -116.8,-281.7 -39.3,-94.9 -78.9,-191 -118.8,-288.2 -33.9,-82.6 -73.2,-177.6 -118.1,-285.8 -33.3,-80.3 -71.8,-172.4 -115.5,-276.7 -28.9,-68.8 -65.4,-156.6 -109.8,-263.9 -41.1,-99.2 -75.1,-182 -102.1,-248.1 -24.6,-60.3 -45.9,-112.4 -63.9,-156.1l0 1829.9 -525.4 0 0 -55zm2156.9 -1336.7c0,-94.3 7.9,-186 23.8,-275.2 15.9,-89.1 39.8,-175.8 71.7,-259.9 31.7,-83.6 69.1,-162.4 112.2,-236.4 43.3,-74.3 92.3,-143.7 146.9,-208.1 54.7,-64.5 114.2,-122.9 178.6,-175.3 64.4,-52.4 133.3,-98.4 206.8,-138.1 73.4,-39.7 149.7,-71.5 228.8,-95.5 78.8,-23.9 160,-39.7 243.6,-47.6l4.9 -0.4c15.8,0 30.1,-0.6 43,-1.8 19,-1.8 36.7,-2.7 52.9,-2.7 92.8,0 182.8,9.8 270.2,29.5 87.4,19.7 171.2,49.1 251.2,88.2 79.7,38.9 154.2,84.7 223.7,137.3 69.5,52.7 133.8,112.1 192.7,178.3 58.6,65.8 111,137.2 157.3,214.1 46.1,76.7 85.7,158.3 118.6,244.6 33,86.3 57.8,175.6 74.5,267.8 16.7,92.2 25,185.8 25,281 0,99.7 -8.5,196.7 -25.5,291.1 -17,94.1 -42.4,184.5 -76.2,271.4 -34,87.2 -73.8,168.5 -119.4,244.1 -46,76.2 -98.1,147 -156.3,212.3 -58,65.1 -121.5,123.7 -190.4,175.5 -68.9,51.9 -142.4,96.4 -220.4,133.6 -157.3,75.1 -325.4,114.2 -504.1,117.3 -90.6,1.6 -178.7,-6.5 -264.5,-24.1 -86.5,-17.8 -170,-45 -250.5,-81.6 -79.9,-36.3 -155.4,-80.1 -226.4,-131.2 -70.7,-50.8 -136.2,-108.5 -196.4,-173 -60.4,-64.7 -114.6,-135.5 -162.7,-212.5 -47.8,-76.5 -89.7,-159.4 -125.6,-248.6 -36,-89.3 -62.9,-181.9 -80.9,-277.8 -18,-96.1 -27,-195 -27,-296.6zm525.4 0c0,116.5 18.9,227.7 56.7,333.9 18.9,53.2 41.4,103.4 67.2,150.5 25.8,47 55,91 87.7,131.9 32.5,40.7 67.9,77.5 106,110.2 38.3,32.9 79.6,61.9 123.7,87.1 43.6,24.8 88.8,44.1 135.7,57.9 46.9,13.8 95.4,22 145.6,24.8l2.6 0.2c55.6,5.6 109.8,4.7 162.6,-2.6 52.3,-7.2 103.4,-20.8 153.2,-40.9 50.5,-20.3 97.9,-45.2 142.2,-74.8 43.7,-29.2 84.7,-63 122.8,-101.4l27.3 -30.7 -0 -0c37,-43 70,-88.6 99,-136.9 29.6,-49.3 55.4,-101.6 77.5,-156.9 21.9,-54.9 38.4,-112 49.4,-171.3 10.9,-58.9 16.4,-120.7 16.4,-185.2 0,-110.6 -18.8,-218.1 -56.5,-322.4 -18.9,-52.3 -41.5,-102.1 -67.7,-149.4 -26.3,-47.4 -56.1,-91.8 -89.2,-133.2 -32.9,-41.2 -69.1,-78.7 -108.5,-112.7 -39.1,-33.8 -81.1,-63.5 -125.7,-89.3 -44.3,-25.6 -90.8,-45.8 -139.4,-60.7 -47.5,-14.5 -97.7,-23.9 -150.5,-28.3l-50.3 0c-108.8,0 -209.8,23.4 -303,70.2 -47.2,23.7 -91.8,51.8 -133.8,84.1 -41.6,32.1 -80.7,68.7 -117.3,109.8 -36.6,41 -69,85.4 -97.3,132.9 -28.5,47.8 -53.2,99.5 -74.1,154.9 -20.9,55.4 -36.5,112 -46.8,169.7 -10.3,57.3 -15.4,116.9 -15.4,178.7zm2043.1 -889.6l57.1 -94 0 -0.2 54.7 -89.9 0.1 0c30.1,-52.2 60.9,-103.3 92.2,-153.2 23.5,-37.4 38.2,-60.7 43.9,-69.7l0.2 0c15.7,-24.7 27.8,-43.5 36.2,-56.5l16.3 -25.1 1617 0 -30.6 75.6 -27.7 67.5 -42.4 103.2c-15.2,36.8 -33.3,81.2 -54.2,133 -23.7,58.6 -44.7,111 -63.4,157.9l-13.9 34.8 -453.4 0 0 1130.5 -4.1 10.1c-44.7,110.8 -82.8,204.9 -114.3,282.2 -29.2,71.6 -66.5,162.6 -111.6,272.1 -35.5,86.2 -69.5,169.9 -102.1,251.3 -32.3,80.6 -61.4,154.2 -87.2,220.8l-106.1 274.1 0 -2441.2 -757.5 0 50.6 -83.3zm6174.9 2221.8l0 -2719.4 1113.5 0c125,0 243.9,26.5 356.7,79.4 111.9,52.5 210.1,124.7 294.8,216.5 42.3,45.9 80.2,95.7 113.6,149.4 33.1,53.1 62,110.7 86.7,172.5 24.7,61.8 43.2,125.4 55.4,190.6 12.4,65.9 18.6,133.1 18.6,201.8 0,101.5 -12.4,197.5 -37.1,288 -24.9,91 -62,175.2 -111.3,252.8 -49.2,77.4 -106.5,144.8 -172,202.3l0.1 0.1c-52.4,46 -109.8,85.4 -172.3,118.1 29.3,73.4 62,154.4 98,242.8 40.3,98.9 79.8,194.8 118.6,287.7 34.4,82.4 73,175.9 115.8,280.8 38.5,94.2 74.5,183.3 108.1,267.3l4.1 10.2 0 1407.8 -105.7 -255.6c-51.8,-125.4 -100,-242.2 -144.6,-350.4 -35.9,-87.1 -77.1,-187.7 -123.1,-300.2 -61,-149.2 -96.5,-236.2 -105.6,-258.5 -25.6,-63 -56.4,-139.2 -92.4,-228.4 -28.6,-71 -55.8,-138.5 -81.4,-202.4 -16.7,-41.8 -40.7,-101.8 -72.4,-181.3 -18.2,-45.8 -41,-102.4 -67.9,-169.1 -28.9,-71.7 -51.5,-127.4 -67.7,-166.9 -37.7,-92.1 -61.2,-149.8 -69.6,-170.4 -16.7,-41.3 -41.1,-101.8 -72.4,-179.6l-79.6 -197.8 -120.6 -299.2 325 0c58.7,0 111.9,-9.2 159.5,-27.6 47.2,-18.3 89.8,-46 127.8,-83 37.6,-36.4 65.7,-78.3 84.4,-125.7 19.1,-48.3 28.6,-103 28.6,-163.9 0,-33 -2.8,-64.4 -8.4,-94.2 -5.6,-29.8 -14.1,-58.3 -25.2,-85.3l-0.2 -0.2c-11.3,-27.6 -24.4,-52.9 -39.5,-75.9 -15,-22.8 -31.6,-43.2 -49.9,-61.2 -19.1,-18.7 -39.6,-35.7 -61.6,-50.7 -21.4,-14.6 -44,-27.2 -67.7,-37.6 -47.4,-20.8 -96.7,-31.2 -147.8,-31.2l-588.1 0 0 2202.4 -525.4 0 0 -55zm-19300.3 -2137c33.9,-81.4 489.1,-737.9 581.7,-801.9 42,325.7 98.4,508.2 -165.2,653.7 -128,70.7 -249.8,125 -416.5,148.1zm1908.6 -2545.9c-171.6,243 -356.2,720 -449.4,1046.2 -184.7,646.4 70.5,555.5 280.2,1092.8 -257.1,486 -992.7,1301.5 -1399.9,1549.3 -235.9,-70.9 -444.5,-174.4 -757,-172.1 -356.6,2.7 -479.1,89.6 -756.9,172.1 -393,-239.1 -1160.7,-1076.2 -1399.4,-1549.3l267 -494c133.4,-268.5 92.2,-331.3 6.9,-620.2 -97.4,-330.1 -266.2,-765.5 -442.3,-1022.3 -75.5,430.6 -24.8,874.4 -135.8,1340.9 -206.7,868.9 -866.6,1296.9 -754.7,2102.3 47.8,343.8 294.4,874.1 495.3,971.2l3.5 -313c65.2,160.7 228.8,719.4 490.9,807l2.5 -366.7c107.7,118.7 138.6,449.4 488.3,903.5 70.8,92 113.9,174.4 211.1,211.6l16.5 -392.8c188.6,431.9 340,756.2 694.6,928.7l2 -428.7c112.8,128.1 225.6,376.3 353.7,523.1 53.5,61.3 370.6,354 474.4,337.6 234,-36.9 654.2,-581.9 789.1,-876.2l9.5 444.8c184.4,-81.7 314.5,-249.3 420.8,-396.6 153,-212 160.8,-291.3 278,-533l3.6 394c105.7,-39.1 155.9,-132.4 228.7,-229.6 340,-454.1 366.1,-768 476.4,-886.6l2.5 367.1c265.4,-93.9 428.9,-663.8 490.6,-807.8l4.8 313.4c201,-98.3 454.4,-641.1 497.2,-998.4 58.1,-485.2 -130.1,-736 -318.6,-1091.9 -736.8,-1391.1 -388.7,-1116.3 -574.2,-2326.8zm-3333.8 1736c49.6,14.3 236.6,294.2 289.8,364.6 87.4,115.7 251.3,328.2 300.1,445.1 -185.5,-25.7 -392.2,-117.1 -508.4,-208.1 -148.5,-116.2 -114.4,-368.6 -81.6,-601.7zm1007.6 -6708.7c-126.6,-95.8 -227.3,-297.6 -343.3,-386.5 -506.2,-177.5 -1024.9,-351.4 -1527.1,-536.6 -163.2,-60.1 -393.6,-208.5 -546.7,-99.9 -152,107.8 -290.7,335.5 -487.7,342 -725.6,23.7 -2893.3,-175.4 -3293.1,-801.4l-17.1 -26.7c-363,-618.1 455.9,-950.5 865.7,-1090.5 154.8,-52.9 419.6,-109.5 530.5,-164.5 -405.6,-159.4 -1543.6,-69.2 -1948.3,82 -447.9,167.4 -983.5,577.9 -984.1,1194.6 -0.9,1041.7 899.8,1636.2 1659.2,2004.5 378.3,183.5 874.7,344.7 1304.7,482.4 383.5,122.8 1014,338.3 1399.2,392.7l235.4 -579.4 2281.9 1470.8 -6 1805.7c-104.8,-190.3 -221.6,-522.3 -291.3,-711.7 -142.5,-387 -88.3,-245.2 -477.5,-495.1 -1005,-645.1 -595.1,-568.1 -698.3,-1281.5 -169.6,-121 -563.7,-386.8 -744.5,-466.2 -176.6,207.6 -610.9,1776.7 -517,1980.2 14.4,31.2 1574.6,1264 1914.8,3053.9 156.6,-179.4 163.4,-457 264.2,-666.2 19.5,422.1 -146.9,909.3 -333.2,1272.2 -68,132.3 -149.9,208.1 -190.3,336.9 185,346.5 951.9,1183.4 1223.2,1343.6 776.5,-242.4 702.4,-224.5 1453.4,-0.5 226.7,-131.5 1143.2,-1083.7 1220.1,-1373.4 -3.9,-33.1 -557.1,-786.2 -520.4,-1578.9 98.1,203.6 109.8,496.1 264.8,665.2 434.2,-1945.2 1854,-2924.3 1914.1,-3052.8 22.1,-308.7 -275.1,-1697.4 -516.9,-1980.4 -180.9,80.8 -571.9,342.8 -744.8,466.5 -80.2,567.4 121.9,626.1 -147.8,862.6 -181,158.8 -340.1,280.8 -549,420.3 -328.8,219.7 -332.1,77.5 -486.6,513.7 -69.4,195.9 -188.2,518.7 -289,691.6l-0.3 -1805.7c170.8,-82.3 390.4,-244 570.9,-361.5l1714.1 -1110.3 225.8 583c531.3,-80.3 2237.9,-647.9 2731.1,-887.3 686.2,-333.1 1639.4,-960.5 1638.4,-1934.4 -0.7,-676.8 -500.2,-1081.7 -1005.9,-1263.5 -389.1,-139.8 -1539.4,-234.4 -1926.7,-73 349.2,169.3 968.4,188.4 1361.4,636.7 187.8,214.3 122.5,541.5 -42.8,720 -430.4,464.7 -1660.8,617.8 -2292,669.7 -190.5,16.2 -861.1,97.7 -1003.4,42.1 -154.7,-60.5 -415.8,-345.1 -514.3,-359.8 -75.2,-11.2 -1171.6,377.6 -1336.7,433.3 -189.6,64 -379.2,128.1 -568.8,192.1 -186.3,76.7 -235.6,284.5 -422,429.3zm11154.1 3038.2l307.7 -501 538.8 0c100.5,0 164.5,47.8 205.7,142.6 53,121.9 29.8,298.6 -39.6,407.5 -15.5,24.3 -33.9,46.6 -55.1,66.9l-58.7 0 -897.7 0 0 553.4 0 51.5 0.3 0 -1.5 805.7 494.9 -805.7 103.9 0 300.1 0 243 0c73.2,0 134.7,20 176.7,77.2 85.1,116 85.1,264.4 0,380.5 -42,57.3 -103.6,77.2 -176.7,77.2l-433.4 0 -109.7 0 -218.3 0 -95.2 152.4 -0.1 -0.1c-17.3,29.1 -33.7,56.3 -49.5,82.1l-235.6 385 598.8 0 109.7 0 433.4 0c125.7,0 244.4,-26.1 353.5,-84.7l-0.1 -0.1c311.4,-167.1 479.3,-506.7 472.8,-851.8 -6.4,-337.4 -174.8,-564.3 -462.2,-709.5l-11.5 -31.7c24,-31.8 53.9,-67.4 66.4,-104.5 98.7,-293.4 39,-645.2 -136.8,-898.2 -134.5,-187 -308.9,-298 -525.2,-313.3l0 -1.8 -52.3 0 -565.8 0 -279.5 0 0 494.4 -1.2 626zm-6068 0l307.7 -501 538.8 0c100.5,0 164.5,47.8 205.7,142.6 53,121.9 29.8,298.6 -39.6,407.5 -15.5,24.3 -33.9,46.6 -55.1,66.9l-58.7 0 -897.7 0 0 553.4 0 51.5 0.3 0 -1.5 805.7 494.9 -805.7 103.9 0 300.1 0 243 0c73.2,0 134.7,20 176.7,77.2 85.1,116 85.1,264.4 0,380.5 -42,57.3 -103.6,77.2 -176.7,77.2l-433.4 0 -109.7 0 -218.3 0 -95.2 152.4 -0.1 -0.1c-17.3,29.1 -33.7,56.3 -49.5,82.1l-235.6 385 598.8 0 109.7 0 433.4 0c125.7,0 244.4,-26.1 353.5,-84.7l-0.1 -0.1c311.4,-167.1 479.3,-506.7 472.8,-851.8 -6.4,-337.4 -174.8,-564.3 -462.2,-709.5l-11.5 -31.7c24,-31.8 53.9,-67.4 66.4,-104.5 98.7,-293.4 39,-645.2 -136.8,-898.2 -134.5,-187 -308.9,-298 -525.2,-313.3l0 -1.8 -52.3 0 -565.8 0 -279.5 0 0 496.7 -1.2 623.7zm3986 1331.4l-906.7 -703.6 621.4 0c-40.7,-100.4 -81.8,-201.6 -123.3,-303.7l-251.2 -616.1 -165.4 406.3 -0.1 -0 -175.1 420.3 -45.3 115 -431.7 1049.2 -569.6 -0 32.1 -77.2 417.4 -1021.2 620 -1509.2 55.8 -135 527.5 0c20.5,69.2 37.1,104.5 71,187.2l1112.3 2726 4.4 10.6 0 1398.1c-277.7,-675.8 -533.3,-1305.1 -793.6,-1946.8zm907.1 -2375.2c750.5,0 1179.3,943.3 734.6,1580 -100.2,143.5 -241.5,250.9 -404.7,313.2l282.8 697.5 -0.2 0.1 136.2 333.4 0 1390.4c-168.4,-398.2 -328.2,-783.9 -491.4,-1193.8l-425.3 -1043.1c-90.5,-222.8 -189.2,-475.9 -284.1,-689.2l451.9 0c125.1,0 248.9,-57.9 322.5,-160.4 49.8,-69.4 70.5,-145 70.5,-232.5 0,-174.4 -87.9,-327.7 -248,-397.8 -46.7,-20.4 -94.1,-30.6 -145.1,-30.6l-781.4 0 -234.6 -567.1 1016 -0zm5782.5 4.4c530.3,0 918.1,478.1 918.1,997.6 0,362.2 -187.7,698.9 -511.8,861.7 -24.9,12.5 -50.3,23.8 -76.3,33.8l355.5 866c13.8,33.4 35.7,87 66.9,163.2l4.4 10.7 0 1391.4c-208.7,-520.9 -382.6,-942.5 -603.4,-1475.5l-317.2 -773.7 -218 -530.6 -58.3 -160.5 440.3 0c226.2,0 397,-147.4 397,-386.4 0,-174.9 -88.8,-331.1 -249.5,-399.8 -47.7,-20.4 -95.7,-30.8 -147.5,-30.8l-780.9 0 -234.7 -567.1 1015.6 0zm-2312.7 2682.3l0 -1289.5 1568 0 236.2 567.1 -1283 0 0 211.2 1365.4 0c83.2,197.1 152.7,377.2 238.6,567.1l-2125.1 0 0 -55.8zm1227.6 -2115.3l-1227.6 0 0 -567.1 991.9 0c83.4,187.1 158.9,377.2 235.7,567.1zm2717.3 949.6c-201.1,-36.1 -353.1,-129.5 -471.7,-291.5 -136.8,-186.8 -179,-426.3 -138.3,-651.8 36.8,-203.9 139.1,-385.7 323.3,-486.6l-0 -0.1c117.1,-64.1 250.3,-91 383.2,-91l692.6 0 -78.4 141.4 -99.4 165.7 -93.9 153.7 -0.2 0c-7.4,12.3 -14.5,24.3 -21.2,36.4l0.1 0c-17.6,32.6 -12.9,20.9 -12.9,70l-386.6 0c-56.1,0 -102.7,16.3 -143.8,53.4l-0.1 -0.1c-40.4,37.2 -56.2,84.2 -56.2,140.7 0,108.5 37,191.5 123.5,228.1 42.1,17.8 82.4,14.6 127.9,14.6 504.4,0 811.8,400.3 811.8,882.7 0,492.8 -352.1,847.3 -839.4,847.3l-637.5 0 338.3 -567.1 299.2 0c123.4,0 247.6,-67.2 294.6,-182.2 31,-76 32.3,-187.4 0.5,-264.9 -47.8,-116.2 -168.9,-184.1 -295,-184.1 -38.5,0 -87.8,-7.9 -120.1,-14.3zm1218.6 -1521.1l465.3 0 0 1101 880.6 0 0 -1101 521.1 0 0 4250.4 -514.2 -935.4 -7 -12.6 0 -1634.2 -880.6 0 0 1074.5 -521.1 0 0 -2742.6 55.8 0zm2070.4 1364.7c0,-354.5 121.9,-697.7 350,-966.8 215.4,-254.2 536.3,-435.5 872.7,-451.3l73.5 -4.1c276.5,0 520.8,89.1 735.4,251.8 517.2,392 693.3,1127.4 460.3,1725.5 -195.4,501.7 -626.9,861.7 -1175.2,871.3 -657.6,11.4 -1172.8,-508.6 -1290,-1133.7 -17.8,-94.9 -26.7,-192.5 -26.7,-292.7zm521.1 0c0,316.7 154.8,641.4 434.3,800.6 97.5,55.5 170.7,71.1 279.2,81.5 233.5,22.3 443.9,-73.1 598,-246.3l-0 -0c305.9,-355.4 320.2,-870.8 28.4,-1235.6 -93.9,-117.4 -223.1,-214.3 -367.5,-258.4 -160.9,-49.2 -345.6,-34 -495.5,41.3 -305.5,153.5 -477,478.8 -477,817z"/>
 </g>
</svg>
