<?xml version="1.0" encoding="UTF-8"?>
<!DOCTYPE svg PUBLIC "-//W3C//DTD SVG 1.1//EN" "http://www.w3.org/Graphics/SVG/1.1/DTD/svg11.dtd">
<!-- Creator: CorelDRAW 2018 (64-Bit) -->
<svg xmlns="http://www.w3.org/2000/svg" xml:space="preserve" width="6715.82mm" height="162.983mm" version="1.1" style="shape-rendering:geometricPrecision; text-rendering:geometricPrecision; image-rendering:optimizeQuality; fill-rule:evenodd; clip-rule:evenodd"
viewBox="0 0 2954202.9 71694.1"
 xmlns:xlink="http://www.w3.org/1999/xlink">
 <defs>
  <style type="text/css">
   <![CDATA[
    .fil0 {fill:#D99E64}
   ]]>
  </style>
 </defs>
 <g id="Слой_x0020_1">
  <metadata id="CorelCorpID_0Corel-Layer"/>
  <path class="fil0" d="M234014.7 52451.5l0 -38330 41278.5 0 0 31657.2c0,357.5 -108,465.5 -465.6,465.5l-17225.2 0 0 -6517.7 11638.7 0 0 -19087.4 -29174.2 0 0 38330 -41278.4 0 0 -31657.2c0,-357.5 108,-465.5 465.5,-465.5l16914.9 0c357.6,0 465.6,108 465.6,465.5l0 6052.1 -11793.9 0 0 19087.4 29174.3 0zm1785836.4 -38795.5l0 -465.6 465.5 0 40813 0 0 31657.2 0 465.5 -465.6 0 -17225.2 0 0 -6517.7 11638.7 0 0 -19087.4 -29174.2 0 0 38330 -11638.6 0 -29174.2 0 -465.6 0 0 -465.6 0 -31191.6 0 -465.5 465.5 0 0 0 16759.7 0 155.1 0 0 0 16.5 0.1 0 0 16.2 0.2 15.8 0.4 0 0 15.4 0.6 0 0 15.1 0.7 0 0 14.7 0.9 0 0 14.4 1.1 0 0 14.1 1.3 13.8 1.5 13.4 1.6 0 0 13.1 1.8 0 0 12.7 2 0 0 12.4 2.2 0 0 12.1 2.4 11.8 2.6 0 0 11.4 2.9 0 0 11.1 3 0 0 10.8 3.3 10.6 3.5 10.2 3.7 9.9 4 9.6 4.1 0 0 9.3 4.4 9.1 4.6 8.8 4.9 8.5 5.1 8.2 5.3 0 0 7.9 5.6 7.7 5.9 7.4 6.1 7.1 6.3 6.8 6.6 0 0 6.6 6.9 6.3 7.1 6.1 7.4 5.9 7.7 5.5 7.9 0 0 5.3 8.2 5.1 8.5 4.9 8.8 4.6 9.1 4.4 9.3 4.1 9.7 4 9.9 3.7 10.2 3.5 10.6 3.3 10.8 3 11.2 2.9 11.5 2.6 11.8 2.4 12.1 2.2 12.4 2 12.8 1.8 13.1 1.6 13.5 1.5 13.8 1.3 14.1 1.1 14.5 0.9 14.8 0.7 15.2 0.6 15.5 0.4 15.9 0.2 16.2 0.1 16.6 0 6052.1 -155.2 0 -11638.7 0 0 19031.1c70.7,39.6 169.4,55.8 304,56.3l6.4 0 23277.3 0 5586.5 0 0 -37864.4zm563932 37398.9l0 -38330 41278.5 0 0 31657.2c0,357.5 -108,465.5 -465.6,465.5l-17225.2 0 0 -6517.7 11638.7 0 0 -19087.4 -29174.2 0 0 38330 -41278.4 0 0 -31657.2c0,-357.5 108,-465.5 465.5,-465.5l16914.9 0c357.6,0 465.6,108 465.6,465.5l0 6052.1 -11793.9 0 0 19087.4 29174.3 0zm281966 0l0 -38330 41278.5 0 0 31657.2c0,357.5 -108,465.5 -465.6,465.5l-17225.2 0 0 -6517.7 11638.7 0 0 -19087.4 -29174.2 0 0 38330 -41278.4 0 0 -31657.2c0,-357.5 108,-465.5 465.5,-465.5l16914.9 0c357.6,0 465.6,108 465.6,465.5l0 6052.1 -11793.9 0 0 19087.4 29174.3 0zm-140905.4 0l0 -38330 41278.5 0 0 31657.2c0,357.5 -108,465.5 -465.6,465.5l-17225.2 0 0 -6517.7 11638.7 0 0 -19087.4 -29174.2 0 0 38330 -41278.4 0 0 -31657.2c0,-357.5 108,-465.5 465.5,-465.5l16914.9 0c357.6,0 465.6,108 465.6,465.5l0 6052.1 -11793.9 0 0 19087.4 29174.3 0zm-47020.2 -37864.4c0,-357.6 108,-465.6 465.5,-465.6l40813 0 0 32122.7 -17690.8 0 0 -6517.7 11638.7 0 0 -19087.4 -29174.3 0 0 38330 -11638.6 0 -29174.2 0 -465.6 0 0 -465.6 0 -31191.6 0 -465.5 465.6 0 16759.7 0 155.2 0c357.5,0 465.5,108 465.5,465.5l0 6052.1 -155.2 0 -11638.7 0 0 19031.1c71.8,40.2 172.5,56.3 310.4,56.3l23277.3 0 5586.5 0 0 -37864.4zm-5586.5 -13190.5l100402.8 0 40657.8 0 140905.4 0 0 6517.6 -140905.4 0 -40657.8 0 -100402.8 0 -40502.6 0 -100402.8 0 -40657.8 0 -100402.9 0 0 465.5 -94040.4 0 -140905.4 0 -40657.8 0 -100402.8 0 -40502.6 0 -100402.8 0 -40657.8 0 -46865 0 -53537.8 0 0 465.5 -140905.4 0 -40657.8 0 -100402.8 0 -40502.6 0 -100402.8 0 -40657.8 0 -100402.9 0 -40502.5 0 -100402.9 0 -40657.8 0 -100402.8 0 -40502.6 0 -100402.8 0 -40657.8 0 -100402.9 0 0 465.5 -140905.4 0 -40657.8 0 -100402.8 0 -40502.6 0 -100402.8 0 -40657.8 0 -140905.4 0 0 -6517.6 140905.4 0 40657.8 0 100402.8 0 40502.6 0 100402.8 0 40657.8 0 100402.9 0 0 -465.5 140905.4 0 40657.8 0 100402.8 0 40502.6 0 100402.8 0 40657.8 0 100402.9 0 40502.5 0 100402.9 0 40657.8 0 100402.8 0 40502.6 0 100402.8 0 40657.8 0 100402.9 0 0 -465.5 94040.4 0 46865 0 40657.8 0 100402.8 0 40502.6 0 100402.8 0 40657.8 0 140905.4 0 53537.8 0 0 -465.5 140905.4 0 40657.8 0 100402.8 0 40502.6 0zm0 63779.9l100402.8 0 40657.8 0 140905.4 0 0 6517.6 -140905.4 0 -40657.8 0 -100402.8 0 -40502.6 0 -100402.8 0 -40657.8 0 -100402.9 0 0 465.5 -94040.4 0 -140905.4 0 -40657.8 0 -100402.8 0 -40502.6 0 -100402.8 0 -40657.8 0 -46865 0 -53537.8 0 0 465.5 -140905.4 0 -40657.8 0 -100402.8 0 -40502.6 0 -100402.8 0 -40657.8 0 -100402.9 0 -40502.5 0 -100402.9 0 -40657.8 0 -100402.8 0 -40502.6 0 -100402.8 0 -40657.8 0 -100402.9 0 0 465.5 -140905.4 0 -40657.8 0 -100402.8 0 -40502.6 0 -100402.8 0 -40657.8 0 -140905.4 0 0 -6517.6 140905.4 0 40657.8 0 100402.8 0 40502.6 0 100402.8 0 40657.8 0 100402.9 0 0 -465.5 140905.4 0 40657.8 0 100402.8 0 40502.6 0 100402.8 0 40657.8 0 100402.9 0 40502.5 0 100402.9 0 40657.8 0 100402.8 0 40502.6 0 100402.8 0 40657.8 0 100402.9 0 0 -465.5 94040.4 0 46865 0 40657.8 0 100402.8 0 40502.6 0 100402.8 0 40657.8 0 140905.4 0 53537.8 0 0 -465.5 140905.4 0 40657.8 0 100402.8 0 40502.6 0zm-155.2 -19389.5l0 457.3 -465.5 0 -16759.7 0 -155.1 0c-357.5,0 -465.5,-108 -465.5,-465.5l0 -6052.1 155.1 0 11328.3 0c137.9,0 238.6,-16.1 310.4,-56.3l0 -18974.8c-71.8,-40.2 -172.5,-56.3 -310.4,-56.3l-28398.3 0c-357.6,0 -465.5,108 -465.5,465.5l0 37864.4 -5121 0 -36157.4 0 0 -31657.2c0,-707.3 1101,-470.5 1861.6,-466.1l15829.1 0.6c333.3,1430.6 155.2,4431.1 155.2,6052.1 0,357.6 -108,465.6 -465.5,465.6l-11328.3 0 0 19087.4 29174.2 0 0 -38330 931.1 0 40347.3 0 0 0 0 31657.2 -0 8.3zm111576 13182.2l0 -56.3c-114.4,-64.1 -155.2,-189.5 -155.2,-409.3l0 -31191.6c0,-219.7 40.8,-345.1 155.2,-409.2l0 -56.3 310.4 0 16914.9 0c357.5,0 465.5,108 465.5,465.5l0 6052.1 -11793.8 0 0 18621.8c0,357.5 108,465.5 465.5,465.5l23277.3 0 5431.3 0 0 -37864.4c0,-357.6 108,-465.6 465.5,-465.6l40813 0 0 32122.7 -17690.8 0 0 -6517.7 11638.7 0 0 -19087.4 -29174.3 0 0 38330 -11483.4 0 -29329.4 0 -310.4 0zm-11793.9 -6517.7l0 -38330 775.9 0 40347.3 0 155.2 0 0 31657.2c0,219.7 -40.8,345.2 -155.2,409.3l0 56.3 -310.3 0 -16914.9 0 -0 0 -16.5 -0.1 -0 0 -16.1 -0.2 -0.1 0 -15.8 -0.4 -0 0 -15.4 -0.6 -0 0 -15.1 -0.7 -0 0 -14.7 -0.9 -0 0 -14.4 -1.1 -0 0 -14 -1.3 -0.1 0 -13.7 -1.5 -0.1 0 -13.4 -1.6 -0 0 -13.1 -1.8 -0 0 -12.7 -2 -0 0 -12.4 -2.2 -0 0 -12.1 -2.4 -0.1 0 -11.7 -2.6 -0 0 -11.4 -2.9 -0 0 -11.1 -3 -0 0 -10.8 -3.3 -0.1 0 -10.5 -3.5 -0.1 0 -10.2 -3.7 -0.1 0 -9.9 -4 -0.1 0 -9.6 -4.1 -0 0 -9.3 -4.4 -0.1 0 -9 -4.6 -0.1 0 -8.7 -4.9 -0 0 -8.4 -5.1 -0 0 -8.2 -5.3 -0 0 -7.9 -5.6 -0 0 -7.6 -5.9 -0 0 -7.3 -6.1 -0 0 -7.1 -6.3 -0 0 -6.8 -6.6 -0 0c-8.9,-9 -17.2,-18.6 -24.8,-29l-0 0 -5.5 -7.9 -0 0 -5.3 -8.2 -0 0c-3.5,-5.5 -6.8,-11.3 -9.9,-17.3l-0 0c-3.2,-5.9 -6.1,-12.1 -8.9,-18.4l-0 0c-2.9,-6.3 -5.5,-12.9 -8,-19.6l-0 0 -3.7 -10.2 -0 0 -3.4 -10.6 -0 0 -3.2 -10.8 -0 0c-2.1,-7.3 -4,-14.9 -5.9,-22.7l-0 0 -2.6 -11.8 -0 0 -2.4 -12.1 -0 0 -2.2 -12.4 -0 0 -2 -12.8 -0 0 -1.8 -13.1 -0 0 -1.6 -13.5 -0 0 -1.5 -13.8 -0 0 -1.2 -14.1 -0 0 -1.1 -14.5 -0 0 -0.9 -14.8 -0 0 -0.7 -15.2 -0 0 -0.5 -15.5 -0 0 -0.4 -15.9 -0 0 -0.2 -16.2 -0 0 -0 -16.6 -0 0 0 -6052.1 0 0 11328.2 0c357.6,0 465.6,-107.9 465.6,-465.5l0 -18156.3c0,-357.5 -108,-465.5 -465.6,-465.5l-28398.3 0c-137.9,0 -238.6,16.1 -310.3,56.3l0 38273.7 -155.2 0 -5121 0 -36002.2 0 0 -31657.2c0,-707.3 1101,-470.5 1861.6,-466.1l15829.1 0.6c333.3,1430.6 155.2,4431.1 155.2,6052.1 0,357.6 -108,465.6 -465.5,465.6l-11328.3 0 0 19087.4 29174.2 0zm152699.3 6517.7l0 -32122.7 17225.2 0c357.5,0 465.5,108 465.5,465.5l0 6052.1 -11793.8 0 0 18621.8c0,357.5 108,465.5 465.5,465.5l23277.3 0 0 6517.7 -29639.8 0zm-11793.9 -6517.7l0 -38330 41278.5 0 0 31657.2c0,357.5 -108,465.5 -465.5,465.5l-16914.9 0c-357.5,0 -465.5,-108 -465.5,-465.5l0 -6052.1 11793.8 0 0 -19087.4 -29174.2 0 0 38330 -41278.4 0 0 -31657.2c0,-707.3 1101,-470.5 1861.6,-466.1l15829.1 0.6c333.3,1430.6 155.2,4431.1 155.2,6052.1 0,357.6 -108,465.6 -465.5,465.6l-11328.3 0 0 19087.4 29174.2 0zm-469891.5 0l0 -38330 41278.5 0 0 31657.2c0,357.5 -108,465.5 -465.6,465.5l-17225.2 0 0 -6517.7 11638.7 0 0 -19087.4 -29174.2 0 0 38330 -41278.4 0 0 -31657.2c0,-357.5 108,-465.5 465.5,-465.5l16914.9 0c357.6,0 465.6,108 465.6,465.5l0 6052.1 -11793.9 0 0 19087.4 29174.3 0zm-47020.2 -37864.4c0,-357.6 108,-465.6 465.5,-465.6l40813 0 0 32122.7 -17690.8 0 0 -6517.7 11638.7 0 0 -19087.4 -29174.3 0 0 38330 -11638.7 0 0 465.5 -29639.8 0 0 -32122.7 0 0c0,-357.5 108,-465.5 465.6,-465.5l16914.9 0c357.5,0 465.5,108 465.5,465.5l0 6052.1 -155.2 0 0 465.5 -11638.6 0 0 18621.8 29174.2 0 0 -37864.4zm-46089.1 -0l0 -465.5 40347.3 0 0 465.5 0 31657.2c0,357.5 -108,465.5 -465.5,465.5l-16914.9 0c-357.5,0 -465.5,-108 -465.5,-465.5l0 -6052.1 155.2 0 0 -465.5 11328.3 0c137.8,0 238.6,-16.1 310.3,-56.3l0 -18565.6 -29174.2 0 0 37864.4 -0 0 0 465.5 -41278.4 0 0 -31657.2c0,-707.3 1101,-470.5 1861.6,-466.1l15829.1 0.6c333.3,1430.6 155.2,4431.1 155.2,6052.1 0,357.6 -108,465.6 -465.5,465.6l-11328.3 0 0 19087.4 29174.2 0 0 -38330 931.2 0zm151923.3 44382.1l0 -56.3c-114.4,-64.1 -155.2,-189.5 -155.2,-409.3l0 -31191.6c0,-219.7 40.8,-345.1 155.2,-409.2l0 -56.3 310.4 0 16914.9 0c357.5,0 465.5,108 465.5,465.5l0 6052.1 -11793.8 0 0 18621.8c0,357.5 108,465.5 465.5,465.5l23277.3 0 5431.3 0 0 -37864.4c0,-357.6 108,-465.6 465.5,-465.6l40813 0 0 32122.7 -17690.8 0 0 -6517.7 11638.7 0 0 -19087.4 -29174.3 0 0 38330 -11483.4 0 -29329.4 0 -310.4 0zm-11793.9 -6517.7l0 -38330 775.9 0 40347.3 0 155.2 0 0 31657.2c0,219.7 -40.8,345.2 -155.2,409.3l0 56.3 -310.3 0 -16914.9 0 -0 0 -16.5 -0.1 -0 0 -16.1 -0.2 -0.1 0 -15.8 -0.4 -0 0 -15.4 -0.6 -0 0 -15.1 -0.7 -0 0 -14.7 -0.9 -0 0 -14.4 -1.1 -0 0 -14 -1.3 -0.1 0 -13.7 -1.5 -0.1 0 -13.4 -1.6 -0 0 -13.1 -1.8 -0 0 -12.7 -2 -0 0 -12.4 -2.2 -0 0 -12.1 -2.4 -0.1 0 -11.7 -2.6 -0 0 -11.4 -2.9 -0 0 -11.1 -3 -0 0 -10.8 -3.3 -0.1 0 -10.5 -3.5 -0.1 0 -10.2 -3.7 -0.1 0 -9.9 -4 -0.1 0 -9.6 -4.1 -0 0 -9.3 -4.4 -0.1 0 -9 -4.6 -0.1 0 -8.7 -4.9 -0 0 -8.4 -5.1 -0 0 -8.2 -5.3 -0 0 -7.9 -5.6 -0 0 -7.6 -5.9 -0 0 -7.3 -6.1 -0 0 -7.1 -6.3 -0 0 -6.8 -6.6 -0 0c-8.9,-9 -17.2,-18.6 -24.8,-29l-0 0 -5.5 -7.9 -0 0 -5.3 -8.2 -0 0c-3.5,-5.5 -6.8,-11.3 -9.9,-17.3l-0 0c-3.2,-5.9 -6.1,-12.1 -8.9,-18.4l-0 0c-2.9,-6.3 -5.5,-12.9 -8,-19.6l-0 0 -3.7 -10.2 -0 0 -3.4 -10.6 -0 0 -3.2 -10.8 -0 0c-2.1,-7.3 -4,-14.9 -5.9,-22.7l-0 0 -2.6 -11.8 -0 0 -2.4 -12.1 -0 0 -2.2 -12.4 -0 0 -2 -12.8 -0 0 -1.8 -13.1 -0 0 -1.6 -13.5 -0 0 -1.5 -13.8 -0 0 -1.2 -14.1 -0 0 -1.1 -14.5 -0 0 -0.9 -14.8 -0 0 -0.7 -15.2 -0 0 -0.5 -15.5 -0 0 -0.4 -15.9 -0 0 -0.2 -16.2 -0 0 -0 -16.6 -0 0 0 -6052.1 0 0 11328.2 0c357.6,0 465.6,-107.9 465.6,-465.5l0 -18156.3c0,-357.5 -108,-465.5 -465.6,-465.5l-28398.3 0c-137.9,0 -238.6,16.1 -310.3,56.3l0 38273.7 -155.2 0 -5121 0 -36002.2 0 0 -31657.2c0,-707.3 1101,-470.5 1861.6,-466.1l15829.1 0.6c333.3,1430.6 155.2,4431.1 155.2,6052.1 0,357.6 -108,465.6 -465.5,465.6l-11328.3 0 0 19087.4 29174.2 0zm-188080.8 465.5l0 -38330 41278.5 0 0 31657.2c0,357.5 -108,465.5 -465.6,465.5l-17225.2 0 0 -6517.7 11638.7 0 0 -19087.4 -29174.2 0 0 38330 -11638.6 0 -29639.8 0 0 -31657.2 0 -465.5 465.5 0 16759.7 0 155.1 0c357.6,0 465.6,108 465.6,465.5l0 6052.1 -155.2 0 -11638.7 0 0 19031c71.8,40.2 172.5,56.3 310.4,56.3l23277.3 0 5586.5 0zm-140905.4 -38273.7l0 -56.3 310.3 0 40813 0 155.2 0 0 31657.2c0,219.7 -40.8,345.1 -155.2,409.2l0 56.3 -310.4 0 -17225.2 0 -155.2 0 0 -6517.7 155.2 0 11483.5 0 0 -19087.4 -29019.1 0 0 38330 -155.2 0 -11483.4 0 -29329.4 0 -310.4 0 0 -56.3c-114.4,-64.1 -155.2,-189.5 -155.2,-409.3l0 -31191.6c0,-219.7 40.8,-345.1 155.2,-409.2l0 -56.3 310.4 0 155.1 0 16759.7 0 155.1 0c357.6,0 465.6,108 465.6,465.5l0 6052.1 -155.2 0 -11638.7 0 0 19031c71.8,40.2 172.5,56.3 310.4,56.3l23277.3 0 5431.3 0 0 -37864.4c0,-219.7 40.8,-345.2 155.2,-409.3zm-5741.7 31600.9l0 465.5 -155.2 0 -310.3 0 -16914.9 0 -0 0 -310.4 0 0 -56.3 -2.8 -1.5 -0 0 -8.4 -5.1 -0 0 -8.2 -5.3 -0 0 -7.9 -5.6 -0 0 -7.6 -5.9 -0 0 -7.3 -6.1 -0 0 -7.1 -6.3 -0 0 -6.8 -6.6 -0 0c-8.9,-9 -17.2,-18.6 -24.8,-29l-0 0 -5.5 -7.9 -0 0 -5.3 -8.2 -0 0c-3.5,-5.5 -6.8,-11.3 -9.9,-17.3l-0 0c-3.2,-5.9 -6.1,-12.1 -8.9,-18.4l-0 0c-2.9,-6.3 -5.5,-12.9 -8,-19.6l-0 0 -3.7 -10.2 -0 0 -3.4 -10.6 -0 0 -3.2 -10.8 -0 0c-2.1,-7.3 -4,-14.9 -5.9,-22.7l-0 0 -2.6 -11.8 -0 0 -2.4 -12.1 -0 0 -2.2 -12.4 -0 0 -2 -12.8 -0 0 -1.8 -13.1 -0 0 -1.6 -13.5 -0 0 -1.5 -13.8 -0 0 -1.2 -14.1 -0 0 -1.1 -14.5 -0 0 -0.9 -14.8 -0 0 -0.7 -15.2 -0 0 -0.5 -15.5 -0 0 -0.4 -15.9 -0 0 -0.2 -16.2 -0 0 -0 -16.6 -0 0 0 -6052.1 0 0 155.1 0 11173.1 0c357.6,0 465.6,-107.9 465.6,-465.5l0 -18156.3c0,-357.5 -108,-465.5 -465.6,-465.5l-28398.3 0 -6.4 0c-134.6,0.5 -233.2,16.7 -303.9,56.3l0 38273.7 -0 0 -155.1 0 -5121 0 -36002.2 0 -0 0 0 -465.6 0 -31191.6 0 -465.5 412.8 0c390.1,-93 983.2,-3.3 1448.8,-0.6l15363.6 0.6 155.2 0 310.3 0c5,21.3 9.8,43 14.6,65 103.3,66.5 140.6,190.4 140.6,400.5l0 706.4c106.8,1540.4 0,3624.2 0,4880.2l0 465.6 -155.2 0 -310.3 0 -11328.3 0 0 19031.1c70.6,39.6 169.4,55.7 303.9,56.3l6.4 0 23277.3 0 5586.5 0 0 -37864.4 0 -465.6 465.5 0 310.4 0 40347.3 0 155.2 0 0 31657.2zm-47020.3 16.6l0 448.9 -465.5 0 -16914.9 0 -310.4 0 0 -56.3c-114.3,-64.1 -155.1,-189.5 -155.1,-409.2l0 -6052.1 155.1 0 11328.3 0 6.4 0c134.6,-0.5 233.3,-16.7 304,-56.3l0 -18974.8c-70.6,-39.6 -169.4,-55.8 -304,-56.3l-6.4 0 -28398.3 0c-357.6,0 -465.5,108 -465.5,465.5l0 37864.4 -41278.4 0 0 -31657.2c0,-337.7 96.4,-452.8 408.5,-464.5 390,-94.7 985.8,-4.4 1453.1,-1.6l15829.1 0.6c5,21.3 9.8,43 14.6,65 103.3,66.5 140.7,190.4 140.7,400.5l0 707c106.1,1530 1.4,3595.6 0,4853.9l0 491.2 -465.6 0 -11328.3 0 0 19087.4 29174.2 0 0 -38330 0 0 931.1 0 40347.3 0 0 0 0 0 0 31657.2 -0.1 16.6zm111420.8 12718.5l-0 -10.2 0 -31191.6c0,-219.7 40.8,-345.1 155.2,-409.2l0 -56.3 257.6 0c390.1,-93 983.2,-3.3 1448.8,-0.6l15829.1 0.6c5,21.3 9.8,43 14.6,65 103.3,66.5 140.6,190.4 140.6,400.5l0 706.4c106.8,1540.4 0,3624.2 0,4880.2l0 465.6 -465.5 0 -11328.3 0 0 18621.8c0,357.5 108,465.5 465.5,465.5l23277.3 0 5431.3 0 0 -37864.4 0 -465.6 465.5 0 40813 0 0 31657.2 0 465.5 -465.5 0 -16914.9 0 -310.4 0 0 -56.3c-114.3,-64.1 -155.1,-189.5 -155.1,-409.2l0 -6052.1 155.1 0 11638.7 0 0 -19087.4 -29174.2 0 0 38330 -0 0 -40812.9 0 -310.4 0 -155.1 0 0 -455.3zm29484.6 -44392.3l155.1 0 0 31657.2c0,219.7 -40.8,345.2 -155.2,409.3l0 56.3 -310.3 0 -155.2 0 -16759.7 0 -465.5 0 0 -465.5 0 -6052.1 11328.3 0c137.9,0 238.6,-16.1 310.4,-56.3l0 -18974.8c-71.8,-40.2 -172.5,-56.3 -310.4,-56.3l-28398.3 0 -6.4 0c-134.6,0.5 -233.2,16.7 -303.9,56.3l0 38273.7 -155.2 0 -41123.3 0 -155.2 0 0 -31657.2c0,-357.5 108,-465.5 465.5,-465.5l102.4 0c390.1,-93 983.2,-3.3 1448.8,-0.6l15829.1 0.6c333.3,1430.6 155.2,4431.1 155.2,6052.1 0,219.7 -40.8,345.2 -155.1,409.3l0 56.3 -310.4 0 -11328.3 0 0 19087.4 29019.1 0 0 -38330 155.1 0 775.9 0 40347.3 0 0.1 0zm-370109.5 56.3l0 -56.3 310.3 0 40813 0 155.2 0 0 31657.2c0,219.7 -40.8,345.1 -155.2,409.2l0 56.3 -310.4 0 -17225.2 0 -155.2 0 0 -6517.7 155.2 0 11483.5 0 0 -19087.4 -29019.1 0 0 38330 -155.2 0 -11483.4 0 -29329.4 0 -310.4 0 0 -56.3c-114.4,-64.1 -155.2,-189.5 -155.2,-409.3l0 -31191.6c0,-219.7 40.8,-345.1 155.2,-409.2l0 -56.3 310.4 0 155.1 0 16759.7 0 155.1 0c357.6,0 465.6,108 465.6,465.5l0 6052.1 -155.2 0 -11638.7 0 0 19031c71.8,40.2 172.5,56.3 310.4,56.3l23277.3 0 5431.3 0 0 -37864.4c0,-219.7 40.8,-345.2 155.2,-409.3zm-5741.7 31600.9l0 465.5 -155.2 0 -310.3 0 -16914.9 0 -0 0 -310.4 0 0 -56.3 -2.8 -1.5 -0 0 -8.4 -5.1 -0 0 -8.2 -5.3 -0 0 -7.9 -5.6 -0 0 -7.6 -5.9 -0 0 -7.3 -6.1 -0 0 -7.1 -6.3 -0 0 -6.8 -6.6 -0 0c-8.9,-9 -17.2,-18.6 -24.8,-29l-0 0 -5.5 -7.9 -0 0 -5.3 -8.2 -0 0c-3.5,-5.5 -6.8,-11.3 -9.9,-17.3l-0 0c-3.2,-5.9 -6.1,-12.1 -8.9,-18.4l-0 0c-2.9,-6.3 -5.5,-12.9 -8,-19.6l-0 0 -3.7 -10.2 -0 0 -3.4 -10.6 -0 0 -3.2 -10.8 -0 0c-2.1,-7.3 -4,-14.9 -5.9,-22.7l-0 0 -2.6 -11.8 -0 0 -2.4 -12.1 -0 0 -2.2 -12.4 -0 0 -2 -12.8 -0 0 -1.8 -13.1 -0 0 -1.6 -13.5 -0 0 -1.5 -13.8 -0 0 -1.2 -14.1 -0 0 -1.1 -14.5 -0 0 -0.9 -14.8 -0 0 -0.7 -15.2 -0 0 -0.5 -15.5 -0 0 -0.4 -15.9 -0 0 -0.2 -16.2 -0 0 -0 -16.6 -0 0 0 -6052.1 0 0 155.1 0 11173.1 0c357.6,0 465.6,-107.9 465.6,-465.5l0 -18156.3c0,-357.5 -108,-465.5 -465.6,-465.5l-28398.3 0 -6.4 0c-134.6,0.5 -233.2,16.7 -303.9,56.3l0 38273.7 -0 0 -155.1 0 -5121 0 -35536.7 0 -465.5 0 0 -457.3 -0 -8.3 0 -31191.6c0,-337.7 96.4,-452.8 408.6,-464.5 390,-94.7 985.8,-4.4 1453.1,-1.6l15829.1 0.6c5,21.3 9.8,43 14.6,65 103.3,66.5 140.6,190.4 140.6,400.5l0 706.4c106.8,1540.4 0,3624.2 0,4880.2l0 465.6 -465.5 0 -11328.3 0 0 19087.4 29174.2 0 0 -37864.4 0 -465.6 465.5 0 310.4 0 40347.3 0 155.2 0 0 31657.2zm-47020.3 16.6l0 448.9 -465.5 0 -16759.7 0 -465.5 0 0 -465.5 0 -6052.1 11328.3 0c137.9,0 238.6,-16.1 310.4,-56.3l0 -18974.8c-71.8,-40.2 -172.5,-56.3 -310.4,-56.3l-28398.3 0c-357.6,0 -465.5,108 -465.5,465.5l0 37864.4 -5121 0 -36157.4 0 0 -31657.2c0,-357.5 108,-465.5 465.5,-465.5l16914.9 0c357.6,0 465.6,108 465.6,465.5l0 6052.1 -11793.9 0 0 19087.4 29174.3 0 0 -38330 931.1 0 40347.3 0 0.1 0 0 31657.2 -0.1 16.6zm111420.8 12718.5l-0 -10.2 0 -31191.6c0,-219.7 40.8,-345.1 155.2,-409.2l0 -56.3 257.6 0c390.1,-93 983.2,-3.3 1448.8,-0.6l15829.1 0.6c5,21.3 9.8,43 14.6,65 103.3,66.5 140.6,190.4 140.6,400.5l0 706.4c106.8,1540.4 0,3624.2 0,4880.2l0 465.6 -465.5 0 -11328.3 0 0 18621.8c0,357.5 108,465.5 465.5,465.5l23277.3 0 5431.3 0 0 -37864.4 0 -465.6 465.5 0 465.6 0 40347.3 0 0 0 0 31657.2 0 465.5 -0 0 -465.5 0 -16759.7 0 -155.1 0 -310.4 0 0 -56.3c-114.3,-64.1 -155.1,-189.5 -155.1,-409.2l0 -6052.1 155.1 0 0 0 11328.3 0 6.4 0c134.6,-0.5 233.3,-16.7 304,-56.3l0 -18974.8c-70.6,-39.6 -169.4,-55.8 -304,-56.3l-6.4 0 -28398.3 0c-357.6,0 -465.5,108 -465.5,465.5l0 37864.4 -0 0 -5121 0 -35691.9 0 -310.4 0 -155.1 0 0 -455.3zm29484.6 -44392.3l155.1 0 0 31657.2c0,219.7 -40.8,345.2 -155.2,409.3l0 56.3 -310.3 0 -155.2 0 -16759.7 0 -465.5 0 0 -465.5 0 -6052.1 11328.3 0c137.9,0 238.6,-16.1 310.4,-56.3l0 -18974.8c-71.8,-40.2 -172.5,-56.3 -310.4,-56.3l-28398.3 0 -6.4 0c-134.6,0.5 -233.2,16.7 -303.9,56.3l0 38273.7 -155.2 0 -41123.3 0 -155.2 0 0 -31657.2c0,-357.5 108,-465.5 465.5,-465.5l102.4 0c390.1,-93 983.2,-3.3 1448.8,-0.6l15829.1 0.6c333.3,1430.6 155.2,4431.1 155.2,6052.1 0,219.7 -40.8,345.2 -155.1,409.3l0 56.3 -310.4 0 -11328.3 0 0 19087.4 29019.1 0 0 -38330 155.1 0 775.9 0 40347.3 0 0.1 0zm-605210.5 38795.5l0 -38330 41278.5 0 0 31657.2c0,357.5 -108,465.5 -465.6,465.5l-17225.2 0 0 -6517.7 11638.7 0 0 -19087.4 -29174.2 0 0 38330 -41278.4 0 0 -31657.2c0,-357.5 108,-465.5 465.5,-465.5l16914.9 0c357.6,0 465.6,108 465.6,465.5l0 6052.1 -11793.9 0 0 19087.4 29174.3 0zm376006.4 -38329.9c0,-357.6 108,-465.6 465.5,-465.6l40813 0 0 32122.7 -17690.8 0 0 -6517.7 11638.7 0 0 -19087.4 -29174.3 0 0 38330 -11638.7 0 0 465.5 -29639.8 0 0 -32122.7 0 0c0,-357.5 108,-465.5 465.6,-465.5l16914.9 0c357.5,0 465.5,108 465.5,465.5l0 6052.1 -155.2 0 0 465.5 -11638.6 0 0 18621.8 29174.2 0 0 -37864.4zm-46089.1 -0l0 -465.5 40347.3 0 0 465.5 0 31657.2c0,357.5 -108,465.5 -465.5,465.5l-16914.9 0c-357.5,0 -465.5,-108 -465.5,-465.5l0 -6052.1 155.2 0 0 -465.5 11328.3 0c137.8,0 238.6,-16.1 310.3,-56.3l0 -18565.6 -29174.2 0 0 37864.4 -0 0 0 465.5 -41278.4 0 0 -31657.2c0,-707.3 1101,-470.5 1861.6,-466.1l15829.1 0.6c333.3,1430.6 155.2,4431.1 155.2,6052.1 0,357.6 -108,465.6 -465.5,465.6l-11328.3 0 0 19087.4 29174.2 0 0 -38330 931.2 0zm-47951.3 38330l0 -38330 41278.5 0 0 31657.2c0,357.5 -108,465.5 -465.6,465.5l-17225.2 0 0 -6517.7 11638.7 0 0 -19087.4 -29174.2 0 0 38330 -41278.4 0 0 -31657.2c0,-357.5 108,-465.5 465.5,-465.5l16914.9 0c357.6,0 465.6,108 465.6,465.5l0 6052.1 -11793.9 0 0 19087.4 29174.3 0zm-140905.4 0l0 -38330 41278.5 0 0 31657.2c0,357.5 -108,465.5 -465.6,465.5l-17225.2 0 0 -6517.7 11638.7 0 0 -19087.4 -29174.2 0 0 38330 -41278.4 0 0 -31657.2c0,-357.5 108,-465.5 465.5,-465.5l16914.9 0c357.6,0 465.6,108 465.6,465.5l0 6052.1 -11793.9 0 0 19087.4 29174.3 0zm-47020.2 -37864.4c0,-357.6 108,-465.6 465.5,-465.6l40813 0 0 32122.7 -17690.8 0 0 -6517.7 11638.7 0 0 -19087.4 -29174.3 0 0 38330 -11638.6 0 -29174.2 0 -465.6 0 0 -465.6 0 -31191.6 0 -465.5 465.6 0 16759.7 0 155.2 0c357.5,0 465.5,108 465.5,465.5l0 6052.1 -155.2 0 -11638.7 0 0 19031.1c71.8,40.2 172.5,56.3 310.4,56.3l23277.3 0 5586.5 0 0 -37864.4zm-5741.8 31199.9l0 457.3 -465.5 0 -16759.7 0 -155.1 0c-357.5,0 -465.5,-108 -465.5,-465.5l0 -6052.1 155.1 0 11328.3 0c137.9,0 238.6,-16.1 310.4,-56.3l0 -18974.8c-71.8,-40.2 -172.5,-56.3 -310.4,-56.3l-28398.3 0c-357.6,0 -465.5,108 -465.5,465.5l0 37864.4 -5121 0 -36157.4 0 0 -31657.2c0,-707.3 1101,-470.5 1861.6,-466.1l15829.1 0.6c333.3,1430.6 155.2,4431.1 155.2,6052.1 0,357.6 -108,465.6 -465.5,465.6l-11328.3 0 0 19087.4 29174.2 0 0 -38330 931.1 0 40347.3 0 0 0 0 31657.2 -0 8.3zm111576 13182.2l0 -56.3c-114.4,-64.1 -155.2,-189.5 -155.2,-409.3l0 -31191.6c0,-219.7 40.8,-345.1 155.2,-409.2l0 -56.3 310.4 0 16914.9 0c357.5,0 465.5,108 465.5,465.5l0 6052.1 -11793.8 0 0 18621.8c0,357.5 108,465.5 465.5,465.5l23277.3 0 5431.3 0 0 -37864.4c0,-357.6 108,-465.6 465.5,-465.6l40813 0 0 32122.7 -17690.8 0 0 -6517.7 11638.7 0 0 -19087.4 -29174.3 0 0 38330 -11483.4 0 -29329.4 0 -310.4 0zm-11793.9 -6517.7l0 -38330 775.9 0 40347.3 0 155.2 0 0 31657.2c0,219.7 -40.8,345.2 -155.2,409.3l0 56.3 -310.3 0 -16914.9 0 -0 0 -16.5 -0.1 -0 0 -16.1 -0.2 -0.1 0 -15.8 -0.4 -0 0 -15.4 -0.6 -0 0 -15.1 -0.7 -0 0 -14.7 -0.9 -0 0 -14.4 -1.1 -0 0 -14 -1.3 -0.1 0 -13.7 -1.5 -0.1 0 -13.4 -1.6 -0 0 -13.1 -1.8 -0 0 -12.7 -2 -0 0 -12.4 -2.2 -0 0 -12.1 -2.4 -0.1 0 -11.7 -2.6 -0 0 -11.4 -2.9 -0 0 -11.1 -3 -0 0 -10.8 -3.3 -0.1 0 -10.5 -3.5 -0.1 0 -10.2 -3.7 -0.1 0 -9.9 -4 -0.1 0 -9.6 -4.1 -0 0 -9.3 -4.4 -0.1 0 -9 -4.6 -0.1 0 -8.7 -4.9 -0 0 -8.4 -5.1 -0 0 -8.2 -5.3 -0 0 -7.9 -5.6 -0 0 -7.6 -5.9 -0 0 -7.3 -6.1 -0 0 -7.1 -6.3 -0 0 -6.8 -6.6 -0 0c-8.9,-9 -17.2,-18.6 -24.8,-29l-0 0 -5.5 -7.9 -0 0 -5.3 -8.2 -0 0c-3.5,-5.5 -6.8,-11.3 -9.9,-17.3l-0 0c-3.2,-5.9 -6.1,-12.1 -8.9,-18.4l-0 0c-2.9,-6.3 -5.5,-12.9 -8,-19.6l-0 0 -3.7 -10.2 -0 0 -3.4 -10.6 -0 0 -3.2 -10.8 -0 0c-2.1,-7.3 -4,-14.9 -5.9,-22.7l-0 0 -2.6 -11.8 -0 0 -2.4 -12.1 -0 0 -2.2 -12.4 -0 0 -2 -12.8 -0 0 -1.8 -13.1 -0 0 -1.6 -13.5 -0 0 -1.5 -13.8 -0 0 -1.2 -14.1 -0 0 -1.1 -14.5 -0 0 -0.9 -14.8 -0 0 -0.7 -15.2 -0 0 -0.5 -15.5 -0 0 -0.4 -15.9 -0 0 -0.2 -16.2 -0 0 -0 -16.6 -0 0 0 -6052.1 0 0 11328.2 0c357.6,0 465.6,-107.9 465.6,-465.5l0 -18156.3c0,-357.5 -108,-465.5 -465.6,-465.5l-28398.3 0c-137.9,0 -238.6,16.1 -310.3,56.3l0 38273.7 -155.2 0 -5121 0 -36002.2 0 0 -31657.2c0,-707.3 1101,-470.5 1861.6,-466.1l15829.1 0.6c333.3,1430.6 155.2,4431.1 155.2,6052.1 0,357.6 -108,465.6 -465.5,465.6l-11328.3 0 0 19087.4 29174.2 0zm-328986.1 0l0 -38330 41278.5 0 0 31657.2c0,357.5 -108,465.5 -465.6,465.5l-17225.2 0 0 -6517.7 11638.7 0 0 -19087.4 -29174.2 0 0 38330 -41278.4 0 0 -31657.2c0,-357.5 108,-465.5 465.5,-465.5l16914.9 0c357.6,0 465.6,108 465.6,465.5l0 6052.1 -11793.9 0 0 19087.4 29174.3 0zm-47020.2 -37864.4c0,-357.6 108,-465.6 465.5,-465.6l40813 0 0 32122.7 -17690.8 0 0 -6517.7 11638.7 0 0 -19087.4 -29174.3 0 0 38330 -11638.7 0 -29174.2 0 -465.6 0 0 -32122.7 465.6 0 16759.6 0 155.2 0c357.5,0 465.5,108 465.5,465.5l0 6052.1 -155.2 0 -11638.6 0 0 19031.1c71.8,40.2 172.5,56.3 310.3,56.3l23277.3 0 5586.6 0 0 -37864.4zm-5741.8 31191.6l0 465.5 -465.5 0 -16759.7 0 -155.2 0c-357.5,0 -465.5,-108 -465.5,-465.5l0 -6052.1 155.2 0 11328.3 0c137.8,0 238.6,-16.1 310.3,-56.3l0 -18974.8c-71.8,-40.2 -172.5,-56.3 -310.3,-56.3l-28398.3 0c-357.6,0 -465.5,108 -465.5,465.5l0 37864.4 -0 0 -5121 0 -36157.5 0 0 -31657.2c0,-707.3 1101,-470.5 1861.6,-466.1l15829.1 0.6c333.3,1430.6 155.2,4431.1 155.2,6052.1 0,357.6 -108,465.6 -465.5,465.6l-11328.3 0 0 19087.4 29174.2 0 0 -38330 931.2 0 40347.3 0 0 31657.2zm111576 13190.5l0 -56.3c-114.4,-64.1 -155.2,-189.5 -155.2,-409.3l0 -31191.6c0,-219.7 40.8,-345.1 155.2,-409.2l0 -56.3 310.4 0 16914.9 0c357.5,0 465.5,108 465.5,465.5l0 6052.1 -11793.8 0 0 18621.8c0,357.5 108,465.5 465.5,465.5l23277.3 0 5431.3 0 0 -37864.4c0,-357.6 108,-465.6 465.5,-465.6l40813 0 0 32122.7 -17690.8 0 0 -6517.7 11638.7 0 0 -19087.4 -29174.3 0 0 38330 -11483.4 0 -29329.4 0 -310.4 0zm-11793.9 -6517.7l0 -38330 775.9 0 40347.3 0 155.2 0 0 31657.2c0,219.7 -40.8,345.2 -155.2,409.3l0 56.3 -310.3 0 -16914.9 0 -0 0 -16.5 -0.1 -0 0 -16.1 -0.2 -0.1 0 -15.8 -0.4 -0 0 -15.4 -0.6 -0 0 -15.1 -0.7 -0 0 -14.7 -0.9 -0 0 -14.4 -1.1 -0 0 -14 -1.3 -0.1 0 -13.7 -1.5 -0.1 0 -13.4 -1.6 -0 0 -13.1 -1.8 -0 0 -12.7 -2 -0 0 -12.4 -2.2 -0 0 -12.1 -2.4 -0.1 0 -11.7 -2.6 -0 0 -11.4 -2.9 -0 0 -11.1 -3 -0 0 -10.8 -3.3 -0.1 0 -10.5 -3.5 -0.1 0 -10.2 -3.7 -0.1 0 -9.9 -4 -0.1 0 -9.6 -4.1 -0 0 -9.3 -4.4 -0.1 0 -9 -4.6 -0.1 0 -8.7 -4.9 -0 0 -8.4 -5.1 -0 0 -8.2 -5.3 -0 0 -7.9 -5.6 -0 0 -7.6 -5.9 -0 0 -7.3 -6.1 -0 0 -7.1 -6.3 -0 0 -6.8 -6.6 -0 0c-8.9,-9 -17.2,-18.6 -24.8,-29l-0 0 -5.5 -7.9 -0 0 -5.3 -8.2 -0 0c-3.5,-5.5 -6.8,-11.3 -9.9,-17.3l-0 0c-3.2,-5.9 -6.1,-12.1 -8.9,-18.4l-0 0c-2.9,-6.3 -5.5,-12.9 -8,-19.6l-0 0 -3.7 -10.2 -0 0 -3.4 -10.6 -0 0 -3.2 -10.8 -0 0c-2.1,-7.3 -4,-14.9 -5.9,-22.7l-0 0 -2.6 -11.8 -0 0 -2.4 -12.1 -0 0 -2.2 -12.4 -0 0 -2 -12.8 -0 0 -1.8 -13.1 -0 0 -1.6 -13.5 -0 0 -1.5 -13.8 -0 0 -1.2 -14.1 -0 0 -1.1 -14.5 -0 0 -0.9 -14.8 -0 0 -0.7 -15.2 -0 0 -0.5 -15.5 -0 0 -0.4 -15.9 -0 0 -0.2 -16.2 -0 0 -0 -16.6 -0 0 0 -6052.1 0 0 11328.2 0c357.6,0 465.6,-107.9 465.6,-465.5l0 -18156.3c0,-357.5 -108,-465.5 -465.6,-465.5l-28398.3 0c-137.9,0 -238.6,16.1 -310.3,56.3l0 38273.7 -155.2 0 -5121 0 -36002.2 0 0 -31657.2c0,-707.3 1101,-470.5 1861.6,-466.1l15829.1 0.6c333.3,1430.6 155.2,4431.1 155.2,6052.1 0,357.6 -108,465.6 -465.5,465.6l-11328.3 0 0 19087.4 29174.2 0zm-470046.8 0l0 -38330 41278.5 0 0 31657.2c0,357.5 -108,465.5 -465.6,465.5l-17225.2 0 0 -6517.7 11638.7 0 0 -19087.4 -29174.2 0 0 38330 -41278.4 0 0 -31657.2c0,-357.5 108,-465.5 465.5,-465.5l16914.9 0c357.6,0 465.6,108 465.6,465.5l0 6052.1 -11793.9 0 0 19087.4 29174.3 0zm281966 0l0 -38330 41278.5 0 0 31657.2c0,357.5 -108,465.5 -465.6,465.5l-17225.2 0 0 -6517.7 11638.7 0 0 -19087.4 -29174.2 0 0 38330 -41278.4 0 0 -31657.2c0,-357.5 108,-465.5 465.5,-465.5l16914.9 0c357.6,0 465.6,108 465.6,465.5l0 6052.1 -11793.9 0 0 19087.4 29174.3 0zm-140905.4 0l0 -38330 41278.5 0 0 31657.2c0,357.5 -108,465.5 -465.6,465.5l-17225.2 0 0 -6517.7 11638.7 0 0 -19087.4 -29174.2 0 0 38330 -41278.4 0 0 -31657.2c0,-357.5 108,-465.5 465.5,-465.5l16914.9 0c357.6,0 465.6,108 465.6,465.5l0 6052.1 -11793.9 0 0 19087.4 29174.3 0zm-47020.2 -37864.4c0,-357.6 108,-465.6 465.5,-465.6l40813 0 0 32122.7 -17690.8 0 0 -6517.7 11638.7 0 0 -19087.4 -29174.3 0 0 38330 -11638.6 0 -29174.2 0 -465.6 0 0 -465.6 0 -31191.6 0 -465.5 465.6 0 16759.7 0 155.2 0c357.5,0 465.5,108 465.5,465.5l0 6052.1 -155.2 0 -11638.7 0 0 19031.1c71.8,40.2 172.5,56.3 310.4,56.3l23277.3 0 5586.5 0 0 -37864.4zm-5741.8 31199.9l0 457.3 -465.5 0 -16759.7 0 -155.1 0c-357.5,0 -465.5,-108 -465.5,-465.5l0 -6052.1 155.1 0 11328.3 0c137.9,0 238.6,-16.1 310.4,-56.3l0 -18974.8c-71.8,-40.2 -172.5,-56.3 -310.4,-56.3l-28398.3 0c-357.6,0 -465.5,108 -465.5,465.5l0 37864.4 -5121 0 -36157.4 0 0 -31657.2c0,-707.3 1101,-470.5 1861.6,-466.1l15829.1 0.6c333.3,1430.6 155.2,4431.1 155.2,6052.1 0,357.6 -108,465.6 -465.5,465.6l-11328.3 0 0 19087.4 29174.2 0 0 -38330 931.1 0 40347.3 0 0 0 0 31657.2 -0 8.3zm111576 13182.2l0 -56.3c-114.4,-64.1 -155.2,-189.5 -155.2,-409.3l0 -31191.6c0,-219.7 40.8,-345.1 155.2,-409.2l0 -56.3 310.4 0 16914.9 0c357.5,0 465.5,108 465.5,465.5l0 6052.1 -11793.8 0 0 18621.8c0,357.5 108,465.5 465.5,465.5l23277.3 0 5431.3 0 0 -37864.4c0,-357.6 108,-465.6 465.5,-465.6l40813 0 0 32122.7 -17690.8 0 0 -6517.7 11638.7 0 0 -19087.4 -29174.3 0 0 38330 -11483.4 0 -29329.4 0 -310.4 0zm-11793.9 -6517.7l0 -38330 775.9 0 40347.3 0 155.2 0 0 31657.2c0,219.7 -40.8,345.2 -155.2,409.3l0 56.3 -310.3 0 -16914.9 0 -0 0 -16.5 -0.1 -0 0 -16.1 -0.2 -0.1 0 -15.8 -0.4 -0 0 -15.4 -0.6 -0 0 -15.1 -0.7 -0 0 -14.7 -0.9 -0 0 -14.4 -1.1 -0 0 -14 -1.3 -0.1 0 -13.7 -1.5 -0.1 0 -13.4 -1.6 -0 0 -13.1 -1.8 -0 0 -12.7 -2 -0 0 -12.4 -2.2 -0 0 -12.1 -2.4 -0.1 0 -11.7 -2.6 -0 0 -11.4 -2.9 -0 0 -11.1 -3 -0 0 -10.8 -3.3 -0.1 0 -10.5 -3.5 -0.1 0 -10.2 -3.7 -0.1 0 -9.9 -4 -0.1 0 -9.6 -4.1 -0 0 -9.3 -4.4 -0.1 0 -9 -4.6 -0.1 0 -8.7 -4.9 -0 0 -8.4 -5.1 -0 0 -8.2 -5.3 -0 0 -7.9 -5.6 -0 0 -7.6 -5.9 -0 0 -7.3 -6.1 -0 0 -7.1 -6.3 -0 0 -6.8 -6.6 -0 0c-8.9,-9 -17.2,-18.6 -24.8,-29l-0 0 -5.5 -7.9 -0 0 -5.3 -8.2 -0 0c-3.5,-5.5 -6.8,-11.3 -9.9,-17.3l-0 0c-3.2,-5.9 -6.1,-12.1 -8.9,-18.4l-0 0c-2.9,-6.3 -5.5,-12.9 -8,-19.6l-0 0 -3.7 -10.2 -0 0 -3.4 -10.6 -0 0 -3.2 -10.8 -0 0c-2.1,-7.3 -4,-14.9 -5.9,-22.7l-0 0 -2.6 -11.8 -0 0 -2.4 -12.1 -0 0 -2.2 -12.4 -0 0 -2 -12.8 -0 0 -1.8 -13.1 -0 0 -1.6 -13.5 -0 0 -1.5 -13.8 -0 0 -1.2 -14.1 -0 0 -1.1 -14.5 -0 0 -0.9 -14.8 -0 0 -0.7 -15.2 -0 0 -0.5 -15.5 -0 0 -0.4 -15.9 -0 0 -0.2 -16.2 -0 0 -0 -16.6 -0 0 0 -6052.1 0 0 11328.2 0c357.6,0 465.6,-107.9 465.6,-465.5l0 -18156.3c0,-357.5 -108,-465.5 -465.6,-465.5l-28398.3 0c-137.9,0 -238.6,16.1 -310.3,56.3l0 38273.7 -155.2 0 -5121 0 -36002.2 0 0 -31657.2c0,-707.3 1101,-470.5 1861.6,-466.1l15829.1 0.6c333.3,1430.6 155.2,4431.1 155.2,6052.1 0,357.6 -108,465.6 -465.5,465.6l-11328.3 0 0 19087.4 29174.2 0zm-328986.1 0l0 -38330 41278.5 0 0 31657.2c0,357.5 -108,465.5 -465.6,465.5l-17225.2 0 0 -6517.7 11638.7 0 0 -19087.4 -29174.2 0 0 38330 -41278.4 0 0 -31657.2c0,-357.5 108,-465.5 465.5,-465.5l16914.9 0c357.6,0 465.6,108 465.6,465.5l0 6052.1 -11793.9 0 0 19087.4 29174.3 0zm-47020.2 -37864.4c0,-357.6 108,-465.6 465.5,-465.6l40813 0 0 32122.7 -17690.8 0 0 -6517.7 11638.7 0 0 -19087.4 -29174.3 0 0 38330 -11638.7 0 0 465.5 -29639.8 0 0 -32122.7 0 0c0,-357.5 108,-465.5 465.6,-465.5l16914.9 0c357.5,0 465.5,108 465.5,465.5l0 6052.1 -155.2 0 0 465.5 -11638.6 0 0 18621.8 29174.2 0 0 -37864.4zm-46089.1 -0l0 -465.5 40347.3 0 0 465.5 0 31657.2c0,357.5 -108,465.5 -465.5,465.5l-16914.9 0c-357.5,0 -465.5,-108 -465.5,-465.5l0 -6052.1 155.2 0 0 -465.5 11328.3 0c137.8,0 238.6,-16.1 310.3,-56.3l0 -18565.6 -29174.2 0 0 37864.4 -0 0 0 465.5 -41278.4 0 0 -31657.2c0,-707.3 1101,-470.5 1861.6,-466.1l15829.1 0.6c333.3,1430.6 155.2,4431.1 155.2,6052.1 0,357.6 -108,465.6 -465.5,465.6l-11328.3 0 0 19087.4 29174.2 0 0 -38330 931.2 0zm151923.3 44382.1l0 -56.3c-114.4,-64.1 -155.2,-189.5 -155.2,-409.3l0 -31191.6c0,-219.7 40.8,-345.1 155.2,-409.2l0 -56.3 310.4 0 16914.9 0c357.5,0 465.5,108 465.5,465.5l0 6052.1 -11793.8 0 0 18621.8c0,357.5 108,465.5 465.5,465.5l23277.3 0 5431.3 0 0 -37864.4c0,-357.6 108,-465.6 465.5,-465.6l40813 0 0 32122.7 -17690.8 0 0 -6517.7 11638.7 0 0 -19087.4 -29174.3 0 0 38330 -11483.4 0 -29329.4 0 -310.4 0zm-11793.9 -6517.7l0 -38330 775.9 0 40347.3 0 155.2 0 0 31657.2c0,219.7 -40.8,345.2 -155.2,409.3l0 56.3 -310.3 0 -16914.9 0 -0 0 -16.5 -0.1 -0 0 -16.1 -0.2 -0.1 0 -15.8 -0.4 -0 0 -15.4 -0.6 -0 0 -15.1 -0.7 -0 0 -14.7 -0.9 -0 0 -14.4 -1.1 -0 0 -14 -1.3 -0.1 0 -13.7 -1.5 -0.1 0 -13.4 -1.6 -0 0 -13.1 -1.8 -0 0 -12.7 -2 -0 0 -12.4 -2.2 -0 0 -12.1 -2.4 -0.1 0 -11.7 -2.6 -0 0 -11.4 -2.9 -0 0 -11.1 -3 -0 0 -10.8 -3.3 -0.1 0 -10.5 -3.5 -0.1 0 -10.2 -3.7 -0.1 0 -9.9 -4 -0.1 0 -9.6 -4.1 -0 0 -9.3 -4.4 -0.1 0 -9 -4.6 -0.1 0 -8.7 -4.9 -0 0 -8.4 -5.1 -0 0 -8.2 -5.3 -0 0 -7.9 -5.6 -0 0 -7.6 -5.9 -0 0 -7.3 -6.1 -0 0 -7.1 -6.3 -0 0 -6.8 -6.6 -0 0c-8.9,-9 -17.2,-18.6 -24.8,-29l-0 0 -5.5 -7.9 -0 0 -5.3 -8.2 -0 0c-3.5,-5.5 -6.8,-11.3 -9.9,-17.3l-0 0c-3.2,-5.9 -6.1,-12.1 -8.9,-18.4l-0 0c-2.9,-6.3 -5.5,-12.9 -8,-19.6l-0 0 -3.7 -10.2 -0 0 -3.4 -10.6 -0 0 -3.2 -10.8 -0 0c-2.1,-7.3 -4,-14.9 -5.9,-22.7l-0 0 -2.6 -11.8 -0 0 -2.4 -12.1 -0 0 -2.2 -12.4 -0 0 -2 -12.8 -0 0 -1.8 -13.1 -0 0 -1.6 -13.5 -0 0 -1.5 -13.8 -0 0 -1.2 -14.1 -0 0 -1.1 -14.5 -0 0 -0.9 -14.8 -0 0 -0.7 -15.2 -0 0 -0.5 -15.5 -0 0 -0.4 -15.9 -0 0 -0.2 -16.2 -0 0 -0 -16.6 -0 0 0 -6052.1 0 0 11328.2 0c357.6,0 465.6,-107.9 465.6,-465.5l0 -18156.3c0,-357.5 -108,-465.5 -465.6,-465.5l-28398.3 0c-137.9,0 -238.6,16.1 -310.3,56.3l0 38273.7 -155.2 0 -5121 0 -36002.2 0 0 -31657.2c0,-707.3 1101,-470.5 1861.6,-466.1l15829.1 0.6c333.3,1430.6 155.2,4431.1 155.2,6052.1 0,357.6 -108,465.6 -465.5,465.6l-11328.3 0 0 19087.4 29174.2 0zm-188080.8 465.5l0 -38330 41278.5 0 0 31657.2c0,357.5 -108,465.5 -465.6,465.5l-17225.2 0 0 -6517.7 11638.7 0 0 -19087.4 -29174.2 0 0 38330 -41278.4 0 0 -31657.2c0,-357.5 108,-465.5 465.5,-465.5l16914.9 0c357.6,0 465.6,108 465.6,465.5l0 6052.1 -11793.9 0 0 19087.4 29174.3 0zm-140905.4 0l0 -38330 41278.5 0 0 31657.2c0,357.5 -108,465.5 -465.6,465.5l-17225.2 0 0 -6517.7 11638.7 0 0 -19087.4 -29174.2 0 0 38330 -41278.4 0 0 -31657.2c0,-357.5 108,-465.5 465.5,-465.5l16914.9 0c357.6,0 465.6,108 465.6,465.5l0 6052.1 -11793.9 0 0 19087.4 29174.3 0zm-47020.2 -37864.4c0,-357.6 108,-465.6 465.5,-465.6l40813 0 0 32122.7 -17690.8 0 0 -6517.7 11638.7 0 0 -19087.4 -29174.3 0 0 38330 -11638.6 0 -29174.2 0 -465.6 0 0 -465.6 0 -31191.6 0 -465.5 465.6 0 16759.7 0 155.2 0c357.5,0 465.5,108 465.5,465.5l0 6052.1 -155.2 0 -11638.7 0 0 19031.1c71.8,40.2 172.5,56.3 310.4,56.3l23277.3 0 5586.5 0 0 -37864.4zm-5741.8 31199.9l0 457.3 -465.5 0 -16759.7 0 -155.1 0c-357.5,0 -465.5,-108 -465.5,-465.5l0 -6052.1 155.1 0 11328.3 0c137.9,0 238.6,-16.1 310.4,-56.3l0 -18974.8c-71.8,-40.2 -172.5,-56.3 -310.4,-56.3l-28398.3 0c-357.6,0 -465.5,108 -465.5,465.5l0 37864.4 -5121 0 -36157.4 0 0 -31657.2c0,-707.3 1101,-470.5 1861.6,-466.1l15829.1 0.6c333.3,1430.6 155.2,4431.1 155.2,6052.1 0,357.6 -108,465.6 -465.5,465.6l-11328.3 0 0 19087.4 29174.2 0 0 -38330 931.1 0 40347.3 0 0 0 0 31657.2 -0 8.3zm111576 13182.2l0 -56.3c-114.4,-64.1 -155.2,-189.5 -155.2,-409.3l0 -31191.6c0,-219.7 40.8,-345.1 155.2,-409.2l0 -56.3 310.4 0 16914.9 0c357.5,0 465.5,108 465.5,465.5l0 6052.1 -11793.8 0 0 18621.8c0,357.5 108,465.5 465.5,465.5l23277.3 0 5431.3 0 0 -37864.4c0,-357.6 108,-465.6 465.5,-465.6l40813 0 0 32122.7 -17690.8 0 0 -6517.7 11638.7 0 0 -19087.4 -29174.3 0 0 38330 -11483.4 0 -29329.4 0 -310.4 0zm-11793.9 -6517.7l0 -38330 775.9 0 40347.3 0 155.2 0 0 31657.2c0,219.7 -40.8,345.2 -155.2,409.3l0 56.3 -310.3 0 -16914.9 0 -0 0 -16.5 -0.1 -0 0 -16.1 -0.2 -0.1 0 -15.8 -0.4 -0 0 -15.4 -0.6 -0 0 -15.1 -0.7 -0 0 -14.7 -0.9 -0 0 -14.4 -1.1 -0 0 -14 -1.3 -0.1 0 -13.7 -1.5 -0.1 0 -13.4 -1.6 -0 0 -13.1 -1.8 -0 0 -12.7 -2 -0 0 -12.4 -2.2 -0 0 -12.1 -2.4 -0.1 0 -11.7 -2.6 -0 0 -11.4 -2.9 -0 0 -11.1 -3 -0 0 -10.8 -3.3 -0.1 0 -10.5 -3.5 -0.1 0 -10.2 -3.7 -0.1 0 -9.9 -4 -0.1 0 -9.6 -4.1 -0 0 -9.3 -4.4 -0.1 0 -9 -4.6 -0.1 0 -8.7 -4.9 -0 0 -8.4 -5.1 -0 0 -8.2 -5.3 -0 0 -7.9 -5.6 -0 0 -7.6 -5.9 -0 0 -7.3 -6.1 -0 0 -7.1 -6.3 -0 0 -6.8 -6.6 -0 0c-8.9,-9 -17.2,-18.6 -24.8,-29l-0 0 -5.5 -7.9 -0 0 -5.3 -8.2 -0 0c-3.5,-5.5 -6.8,-11.3 -9.9,-17.3l-0 0c-3.2,-5.9 -6.1,-12.1 -8.9,-18.4l-0 0c-2.9,-6.3 -5.5,-12.9 -8,-19.6l-0 0 -3.7 -10.2 -0 0 -3.4 -10.6 -0 0 -3.2 -10.8 -0 0c-2.1,-7.3 -4,-14.9 -5.9,-22.7l-0 0 -2.6 -11.8 -0 0 -2.4 -12.1 -0 0 -2.2 -12.4 -0 0 -2 -12.8 -0 0 -1.8 -13.1 -0 0 -1.6 -13.5 -0 0 -1.5 -13.8 -0 0 -1.2 -14.1 -0 0 -1.1 -14.5 -0 0 -0.9 -14.8 -0 0 -0.7 -15.2 -0 0 -0.5 -15.5 -0 0 -0.4 -15.9 -0 0 -0.2 -16.2 -0 0 -0 -16.6 -0 0 0 -6052.1 0 0 11328.2 0c357.6,0 465.6,-107.9 465.6,-465.5l0 -18156.3c0,-357.5 -108,-465.5 -465.6,-465.5l-28398.3 0c-137.9,0 -238.6,16.1 -310.3,56.3l0 38273.7 -155.2 0 -5121 0 -36002.2 0 0 -31657.2c0,-707.3 1101,-470.5 1861.6,-466.1l15829.1 0.6c333.3,1430.6 155.2,4431.1 155.2,6052.1 0,357.6 -108,465.6 -465.5,465.6l-11328.3 0 0 19087.4 29174.2 0zm-328986.1 0l0 -38330 41278.5 0 0 31657.2c0,357.5 -108,465.5 -465.6,465.5l-17225.2 0 0 -6517.7 11638.7 0 0 -19087.4 -29174.2 0 0 38330 -41278.4 0 0 -31657.2c0,-357.5 108,-465.5 465.5,-465.5l16914.9 0c357.6,0 465.6,108 465.6,465.5l0 6052.1 -11793.9 0 0 19087.4 29174.3 0zm-47020.2 -37864.4c0,-357.6 108,-465.6 465.5,-465.6l40813 0 0 32122.7 -17690.8 0 0 -6517.7 11638.7 0 0 -19087.4 -29174.3 0 0 38330 -40812.9 0c-357.6,0 -465.6,-108 -465.6,-465.6l0 -31191.6c0,-357.5 108,-465.5 465.6,-465.5l16914.9 0c357.5,0 465.5,108 465.5,465.5l0 6052.1 -11793.9 0 0 19087.4 29174.2 0 0 -37864.4zm-46089.1 44382.1l0 -44847.6 40347.3 0 0 32122.7 -17225.2 0c-357.6,0 -465.5,-108 -465.5,-465.5l0 -6052.1 11328.3 0c357.6,0 465.6,-107.9 465.6,-465.5l0 -18156.3c0,-357.5 -108,-465.5 -465.6,-465.5l-28398.3 0c-357.6,0 -465.5,108 -465.5,465.5l0 37864.4 -5121 0zm151923.3 0l0 -56.3c-114.4,-64.1 -155.2,-189.5 -155.2,-409.3l0 -31191.6c0,-219.7 40.8,-345.1 155.2,-409.2l0 -56.3 310.4 0 16914.9 0c357.5,0 465.5,108 465.5,465.5l0 6052.1 -11793.8 0 0 18621.8c0,357.5 108,465.5 465.5,465.5l23277.3 0 5431.3 0 0 -37864.4c0,-357.6 108,-465.6 465.5,-465.6l40813 0 0 32122.7 -17690.8 0 0 -6517.7 11638.7 0 0 -19087.4 -29174.3 0 0 38330 -11483.4 0 -29329.4 0 -310.4 0zm-11793.9 -6517.7l0 -38330 775.9 0 40347.3 0 155.2 0 0 31657.2c0,219.7 -40.8,345.2 -155.2,409.3l0 56.3 -310.3 0 -16914.9 0 -0 0 -16.5 -0.1 -0 0 -16.1 -0.2 -0.1 0 -15.8 -0.4 -0 0 -15.4 -0.6 -0 0 -15.1 -0.7 -0 0 -14.7 -0.9 -0 0 -14.4 -1.1 -0 0 -14 -1.3 -0.1 0 -13.7 -1.5 -0.1 0 -13.4 -1.6 -0 0 -13.1 -1.8 -0 0 -12.7 -2 -0 0 -12.4 -2.2 -0 0 -12.1 -2.4 -0.1 0 -11.7 -2.6 -0 0 -11.4 -2.9 -0 0 -11.1 -3 -0 0 -10.8 -3.3 -0.1 0 -10.5 -3.5 -0.1 0 -10.2 -3.7 -0.1 0 -9.9 -4 -0.1 0 -9.6 -4.1 -0 0 -9.3 -4.4 -0.1 0 -9 -4.6 -0.1 0 -8.7 -4.9 -0 0 -8.4 -5.1 -0 0 -8.2 -5.3 -0 0 -7.9 -5.6 -0 0 -7.6 -5.9 -0 0 -7.3 -6.1 -0 0 -7.1 -6.3 -0 0 -6.8 -6.6 -0 0c-8.9,-9 -17.2,-18.6 -24.8,-29l-0 0 -5.5 -7.9 -0 0 -5.3 -8.2 -0 0c-3.5,-5.5 -6.8,-11.3 -9.9,-17.3l-0 0c-3.2,-5.9 -6.1,-12.1 -8.9,-18.4l-0 0c-2.9,-6.3 -5.5,-12.9 -8,-19.6l-0 0 -3.7 -10.2 -0 0 -3.4 -10.6 -0 0 -3.2 -10.8 -0 0c-2.1,-7.3 -4,-14.9 -5.9,-22.7l-0 0 -2.6 -11.8 -0 0 -2.4 -12.1 -0 0 -2.2 -12.4 -0 0 -2 -12.8 -0 0 -1.8 -13.1 -0 0 -1.6 -13.5 -0 0 -1.5 -13.8 -0 0 -1.2 -14.1 -0 0 -1.1 -14.5 -0 0 -0.9 -14.8 -0 0 -0.7 -15.2 -0 0 -0.5 -15.5 -0 0 -0.4 -15.9 -0 0 -0.2 -16.2 -0 0 -0 -16.6 -0 0 0 -6052.1 0 0 11328.2 0c357.6,0 465.6,-107.9 465.6,-465.5l0 -18156.3c0,-357.5 -108,-465.5 -465.6,-465.5l-28398.3 0c-137.9,0 -238.6,16.1 -310.3,56.3l0 38273.7 -155.2 0 -5121 0 -36002.2 0 0 -31657.2c0,-707.3 1101,-470.5 1861.6,-466.1l15829.1 0.6c333.3,1430.6 155.2,4431.1 155.2,6052.1 0,357.6 -108,465.6 -465.5,465.6l-11328.3 0 0 19087.4 29174.2 0z"/>
 </g>
</svg>
